<svg width="24" height="24" viewBox="0 0 24 24" fill="none" xmlns="http://www.w3.org/2000/svg">
<path d="M22.2 2.325L21.675 1.8C21.525 1.65 21.3 1.65 21.15 1.8L12 10.95L2.85 1.8C2.7 1.65 2.475 1.65 2.325 1.8L1.8 2.325C1.65 2.475 1.65 2.7 1.8 2.85L10.95 12L1.8 21.15C1.65 21.3 1.65 21.525 1.8 21.675L2.325 22.2C2.475 22.35 2.7 22.35 2.85 22.2L12 13.05L21.15 22.2C21.3 22.35 21.525 22.35 21.675 22.2L22.2 21.675C22.35 21.525 22.35 21.3 22.2 21.15L13.05 12L22.2 2.85C22.35 2.7 22.35 2.475 22.2 2.325Z" fill="white"/>
</svg>
