<svg width="28" height="28" viewBox="0 0 28 28" fill="none" xmlns="http://www.w3.org/2000/svg">
<g clip-path="url(#clip0_423_1050)">
<path d="M4.11746 23.8827C5.40037 25.1656 6.89479 26.173 8.55933 26.877C10.2837 27.6064 12.1143 27.9761 14.0001 27.9761C15.8859 27.9761 17.7165 27.6064 19.4409 26.877C21.1054 26.173 22.5999 25.1655 23.8828 23.8827C25.1657 22.5997 26.1732 21.1053 26.8771 19.4408C27.6065 17.7164 27.9763 15.8858 27.9763 14.0001C27.9763 12.1141 27.6065 10.2836 26.8771 8.55927C26.1732 6.89473 25.1656 5.40031 23.8828 4.1174C22.5999 2.83449 21.1054 1.82705 19.4409 1.12303C17.7164 0.393636 15.8859 0.0238647 14.0001 0.0238647C12.1143 0.0238647 10.2837 0.393683 8.55933 1.12303C6.89479 1.82705 5.40037 2.83453 4.11746 4.1174C2.83455 5.40026 1.82711 6.89473 1.12305 8.55922C0.393744 10.2836 0.0239258 12.1141 0.0239258 14.0001C0.0239258 15.8859 0.393744 17.7164 1.12309 19.4408C1.82711 21.1053 2.83459 22.5997 4.11746 23.8827ZM14.0001 2.06418C20.5921 2.06418 25.9359 7.40804 25.9359 14.0001C25.9359 20.592 20.5921 25.9358 14.0001 25.9358C7.4081 25.9358 2.06424 20.592 2.06424 14.0001C2.06424 7.40804 7.4081 2.06418 14.0001 2.06418Z" fill="#9D1C45"/>
<path d="M14 28C12.1108 28 10.2772 27.6296 8.54993 26.899C6.88253 26.1938 5.38554 25.1846 4.10053 23.8996C2.81543 22.6144 1.80628 21.1174 1.10107 19.4501C0.370438 17.7227 0 15.8891 0 14.0001C0 12.1111 0.370438 10.2774 1.10103 8.55C1.80623 6.8827 2.81543 5.38571 4.10048 4.10061C5.38554 2.81551 6.88258 1.80635 8.54988 1.10115C10.2773 0.37056 12.1109 0.00012207 14 0.00012207C15.8891 0.00012207 17.7228 0.37056 19.45 1.1012C21.1173 1.8064 22.6143 2.8156 23.8995 4.10065C25.1846 5.38585 26.1938 6.88284 26.8989 8.55005C27.6296 10.2775 28 12.1111 28 14.0001C28 15.8891 27.6296 17.7227 26.8989 19.4501C26.1938 21.1174 25.1847 22.6144 23.8995 23.8996C22.6144 25.1846 21.1174 26.1938 19.45 26.8991C17.7228 27.6296 15.8891 28 14 28ZM14 0.0477484C12.1174 0.0477484 10.29 0.4169 8.5685 1.14501C6.90687 1.84783 5.41492 2.85356 4.1342 4.13428C2.85344 5.41505 1.84771 6.90694 1.14489 8.56853C0.416778 10.2901 0.0476263 12.1175 0.0476263 14.0001C0.0476263 15.8826 0.416778 17.7101 1.14489 19.4316C1.84771 21.0933 2.85344 22.5851 4.1342 23.8659C5.41488 25.1465 6.90677 26.1523 8.5685 26.8552C10.2898 27.5833 12.1172 27.9524 14 27.9524C15.8828 27.9524 17.7101 27.5833 19.4315 26.8551C21.0932 26.1523 22.5851 25.1465 23.8658 23.8659C25.1466 22.585 26.1523 21.0931 26.855 19.4316C27.5832 17.7101 27.9524 15.8827 27.9524 14.0001C27.9524 12.1175 27.5832 10.2901 26.855 8.56862C26.1523 6.90708 25.1466 5.41519 23.8658 4.13433C22.585 2.85361 21.0931 1.84788 19.4315 1.14506C17.7101 0.4169 15.8827 0.0477484 14 0.0477484ZM14 25.9597C10.8055 25.9597 7.8021 24.7157 5.54323 22.4568C3.28436 20.1979 2.04031 17.1947 2.04031 14.0001C2.04031 10.8056 3.28431 7.80222 5.54323 5.54335C7.8021 3.28448 10.8055 2.04043 14 2.04043C17.1945 2.04043 20.1979 3.28448 22.4567 5.54335C24.7156 7.80227 25.9596 10.8056 25.9596 14.0001C25.9596 17.1947 24.7156 20.198 22.4567 22.4568C20.1979 24.7157 17.1945 25.9597 14 25.9597ZM14 2.08806C10.8182 2.08806 7.82682 3.32716 5.5769 5.57702C3.32703 7.82694 2.08794 10.8183 2.08794 14.0001C2.08794 17.1819 3.32703 20.1733 5.5769 22.4231C7.82677 24.673 10.8182 25.9121 14 25.9121C17.1818 25.9121 20.1732 24.673 22.4231 22.4231C24.6729 20.1733 25.912 17.1819 25.912 14.0001C25.912 10.8183 24.6729 7.82689 22.4231 5.57702C20.1731 3.32711 17.1818 2.08806 14 2.08806Z" fill="#9D1C45"/>
<path d="M8.80714 19.1929C8.90176 19.2878 9.01419 19.3631 9.13799 19.4144C9.26178 19.4657 9.39449 19.492 9.52849 19.4918C9.66249 19.492 9.7952 19.4657 9.919 19.4144C10.0428 19.3631 10.1552 19.2878 10.2498 19.1929L14 15.4427L17.7503 19.1929C17.9494 19.3922 18.2105 19.4918 18.4716 19.4918C18.7327 19.4918 18.9938 19.3922 19.193 19.1929C19.5914 18.7946 19.5914 18.1487 19.193 17.7503L15.4427 14.0001L19.1929 10.2499C19.5913 9.85146 19.5913 9.2055 19.1929 8.80716C18.7946 8.40876 18.1486 8.40876 17.7502 8.80716L14 12.5574L10.2498 8.80716C9.8514 8.40876 9.20544 8.40876 8.8071 8.80716C8.4087 9.20555 8.4087 9.85146 8.8071 10.2499L12.5573 14.0001L8.8071 17.7503C8.40875 18.1487 8.40875 18.7946 8.80714 19.1929Z" fill="#9D1C45"/>
<path d="M18.4715 19.5156C18.3343 19.516 18.1984 19.4892 18.0717 19.4367C17.945 19.3842 17.83 19.307 17.7333 19.2098L13.9999 15.4764L10.2666 19.2098C10.0694 19.407 9.8072 19.5156 9.52835 19.5156C9.2495 19.5156 8.98731 19.407 8.79014 19.2098C8.6929 19.1131 8.61581 18.998 8.56332 18.8713C8.51084 18.7446 8.48401 18.6088 8.48438 18.4716C8.48438 18.1928 8.59297 17.9307 8.79014 17.7334L12.5235 14.0001L8.79014 10.2667C8.38313 9.85962 8.38313 9.19732 8.79014 8.79026C8.88686 8.69302 9.0019 8.61592 9.12862 8.56344C9.25533 8.51095 9.3912 8.48412 9.52835 8.4845C9.8072 8.4845 10.0694 8.59309 10.2666 8.79026L13.9999 12.5236L17.7333 8.79026C17.83 8.69302 17.9451 8.61593 18.0718 8.56345C18.1985 8.51096 18.3344 8.48413 18.4715 8.4845C18.7503 8.4845 19.0125 8.59309 19.2096 8.79026C19.4069 8.98744 19.5154 9.24962 19.5154 9.52847C19.5154 9.80732 19.4069 10.0695 19.2096 10.2667L15.4763 14.0001L19.2097 17.7334C19.307 17.8302 19.3841 17.9452 19.4366 18.0719C19.4891 18.1986 19.5159 18.3345 19.5155 18.4716C19.5155 18.7505 19.407 19.0126 19.2097 19.2098C19.0124 19.407 18.7503 19.5156 18.4715 19.5156ZM13.9999 15.409L17.7669 19.1761C17.8592 19.2689 17.969 19.3425 18.09 19.3926C18.2109 19.4427 18.3406 19.4684 18.4715 19.468C18.6024 19.4683 18.7321 19.4427 18.853 19.3926C18.9739 19.3425 19.0837 19.2689 19.176 19.1761C19.3642 18.988 19.4679 18.7378 19.4679 18.4716C19.4679 18.2055 19.3642 17.9553 19.176 17.7671L15.4089 14.0001L19.1759 10.233C19.3641 10.0448 19.4677 9.79461 19.4677 9.52847C19.4677 9.26233 19.3641 9.01215 19.1759 8.82398C18.9878 8.63581 18.7376 8.53217 18.4715 8.53217C18.2053 8.53217 17.9551 8.63581 17.7669 8.82398L13.9999 12.591L10.2328 8.82398C10.1405 8.73117 10.0307 8.6576 9.9098 8.60751C9.78886 8.55742 9.6592 8.53182 9.5283 8.53217C9.39741 8.53182 9.26775 8.55742 9.14683 8.60751C9.0259 8.6576 8.91611 8.73118 8.82381 8.82398C8.43537 9.21247 8.43537 9.84452 8.82381 10.233L12.5909 14.0001L8.82381 17.7671C8.63564 17.9553 8.53201 18.2055 8.53201 18.4716C8.53201 18.7378 8.63564 18.988 8.82381 19.1761C9.01203 19.3643 9.26221 19.468 9.52835 19.468C9.79448 19.468 10.0447 19.3643 10.2329 19.1761L13.9999 15.409Z" fill="#9D1C45"/>
</g>
<defs>
<clipPath id="clip0_423_1050">
<rect width="28" height="28" fill="white"/>
</clipPath>
</defs>
</svg>
