<svg width="18" height="19" viewBox="0 0 18 19" fill="none" xmlns="http://www.w3.org/2000/svg">
<g clip-path="url(#clip0_319_165)">
<path d="M14.3401 2.71363C11.3887 -0.237718 6.61165 -0.238036 3.65998 2.71363C0.708702 5.66488 0.708244 10.442 3.65998 13.3937L8.60091 18.3346C8.82137 18.5551 9.17874 18.5551 9.39916 18.3346L14.3401 13.3937C17.2913 10.4425 17.2918 5.66533 14.3401 2.71363ZM13.5418 12.5955L9.00002 17.1373L4.45823 12.5955C1.9539 10.0912 1.9539 6.01625 4.45823 3.51192C6.9626 1.00762 11.0374 1.00755 13.5418 3.51192C16.0461 6.01622 16.0461 10.0911 13.5418 12.5955Z" fill="#1C9D74"/>
<path d="M9.00002 4.67773C7.1342 4.67773 5.62402 6.18759 5.62402 8.0537C5.62402 9.91949 7.13395 11.4297 9.00002 11.4297C10.8659 11.4297 12.376 9.91973 12.376 8.0537C12.376 6.18791 10.8661 4.67773 9.00002 4.67773ZM10.5889 9.64262C10.5673 9.64262 10.0353 10.3007 9.00002 10.3007C7.75811 10.3007 6.75294 9.29576 6.75294 8.0537C6.75294 6.81182 7.75796 5.80665 9.00002 5.80665C11.0174 5.80665 11.9871 8.24449 10.5889 9.64262Z" fill="#1C9D74"/>
</g>
<defs>
<clipPath id="clip0_319_165">
<rect width="18" height="18" fill="white" transform="translate(0 0.5)"/>
</clipPath>
</defs>
</svg>
