<svg width="33" height="32" viewBox="0 0 33 32" fill="none" xmlns="http://www.w3.org/2000/svg">
<path fill-rule="evenodd" clip-rule="evenodd" d="M0.333313 16C0.333313 7.16481 7.49813 0 16.3333 0C25.1685 0 32.3333 7.16481 32.3333 16C32.3333 24.8352 25.1685 32 16.3333 32C7.49813 32 0.333313 24.8352 0.333313 16ZM25.0384 22.0181C25.2654 21.4336 25.421 20.7659 25.4654 19.7878C25.5103 18.8081 25.5208 18.4951 25.5208 16C25.5208 13.5049 25.5103 13.1919 25.4656 12.2122C25.4209 11.2341 25.2657 10.5664 25.0384 9.98194C24.8078 9.3689 24.4462 8.81357 23.9789 8.35469C23.5199 7.88719 22.9645 7.52545 22.3514 7.29469C21.7669 7.06787 21.0992 6.91262 20.1211 6.86812C19.1414 6.82325 18.8284 6.8125 16.3333 6.8125C13.8382 6.8125 13.5252 6.82325 12.5455 6.86794C11.5674 6.91262 10.8998 7.06787 10.3153 7.29494C9.70217 7.52557 9.14682 7.88726 8.688 8.35475C8.22047 8.81355 7.85871 9.36887 7.628 9.98194C7.40094 10.5664 7.24563 11.2341 7.20125 12.2122C7.15631 13.1919 7.14581 13.5049 7.14581 16C7.14581 18.4951 7.15631 18.8081 7.2015 19.7881C7.24594 20.7659 7.40144 21.4338 7.6285 22.0181C7.85914 22.6311 8.22074 23.1864 8.68806 23.6453C9.14694 24.1127 9.70232 24.4744 10.3154 24.7051C10.8998 24.9321 11.5677 25.0874 12.5454 25.1321C13.5254 25.1768 13.8382 25.1875 16.3336 25.1875C18.8287 25.1875 19.1417 25.1768 20.1214 25.1321C21.0992 25.0874 21.7671 24.9321 22.3514 24.7051C22.9617 24.469 23.516 24.1081 23.9787 23.6454C24.4414 23.1827 24.8023 22.6284 25.0384 22.0181ZM23.4955 10.5817C23.3483 10.1826 23.1134 9.82165 22.8083 9.52527C22.512 9.22008 22.151 8.98524 21.7519 8.83802C21.4281 8.71234 20.9419 8.56265 20.046 8.5219C19.077 8.47771 18.7865 8.46815 16.3334 8.46815C13.88 8.46815 13.5895 8.47746 12.6208 8.52165C11.725 8.56265 11.2384 8.71227 10.915 8.83802C10.5158 8.98518 10.1548 9.22003 9.85854 9.52527C9.55335 9.82166 9.31843 10.1826 9.17104 10.5817C9.04535 10.9055 8.89566 11.392 8.85491 12.2878C8.81072 13.2565 8.80116 13.547 8.80116 16.0004C8.80116 18.4535 8.81072 18.744 8.85491 19.713C8.89566 20.6088 9.04535 21.0951 9.17104 21.4188C9.31834 21.8179 9.55318 22.1789 9.85829 22.4753C10.1546 22.7805 10.5156 23.0153 10.9147 23.1625C11.2385 23.2885 11.725 23.4381 12.6208 23.4789C13.5895 23.5231 13.8798 23.5324 16.3332 23.5324C18.7868 23.5324 19.0773 23.5231 20.0458 23.4789C20.9415 23.4381 21.4282 23.2885 21.7519 23.1625C22.1481 23.0097 22.508 22.7756 22.8083 22.4753C23.1086 22.1749 23.3427 21.8151 23.4955 21.4188C23.6212 21.0951 23.7709 20.6088 23.8119 19.713C23.8561 18.744 23.8654 18.4535 23.8654 16.0004C23.8654 13.547 23.8561 13.2565 23.8119 12.2878C23.7712 11.392 23.6215 10.9054 23.4955 10.5817ZM16.3334 20.718C13.7277 20.718 11.6154 18.6058 11.6154 16.0001C11.6154 13.3945 13.7277 11.2824 16.3334 11.2824C18.9389 11.2824 21.0512 13.3945 21.0512 16.0001C21.0512 18.6058 18.9389 20.718 16.3334 20.718ZM21.2377 12.1984C20.6288 12.1984 20.1352 11.7047 20.1352 11.0959C20.1352 10.4871 20.6288 9.99334 21.2377 9.99334C21.8466 9.99334 22.3402 10.487 22.3402 11.0958C22.34 11.7047 21.8466 12.1984 21.2377 12.1984ZM19.3958 16C19.3958 17.6914 18.0247 19.0625 16.3333 19.0625C14.6419 19.0625 13.2708 17.6914 13.2708 16C13.2708 14.3086 14.6419 12.9375 16.3333 12.9375C18.0247 12.9375 19.3958 14.3086 19.3958 16Z" fill="#9D1C45"/>
</svg>
