<svg width="52" height="53" viewBox="0 0 52 53" fill="none" xmlns="http://www.w3.org/2000/svg">
<g clip-path="url(#clip0_509_567)">
<path d="M30.8148 14.7036H34.6667C42.5745 14.7036 42.9327 30.111 52 30.111H17.3333C8.26607 30.111 7.90785 14.7036 0 14.7036H15.4074" stroke="#33282C" stroke-width="1.5" stroke-miterlimit="10" stroke-linecap="round" stroke-linejoin="round"/>
<path d="M0 22.4075C3.94815 22.4075 6.01852 26.2593 8.23333 30.1112C10.4385 33.963 12.7978 37.8149 17.3333 37.8149H52C48.9927 37.8149 46.9425 36.121 45.2593 33.8571" stroke="#33282C" stroke-width="1.5" stroke-miterlimit="10" stroke-linecap="round" stroke-linejoin="round"/>
<path d="M45.2593 41.5607C46.9425 43.8256 48.9927 45.5185 52 45.5185H17.3333C8.26222 45.5185 7.90593 30.1111 0 30.1111" stroke="#33282C" stroke-width="1.5" stroke-miterlimit="10" stroke-linecap="round" stroke-linejoin="round"/>
<path d="M18.068 21.5V19.5728L23.102 14.5265C23.575 14.0298 23.9702 13.5894 24.2877 13.2053C24.6116 12.8212 24.8546 12.4503 25.0165 12.0927C25.1785 11.7285 25.2595 11.3411 25.2595 10.9305C25.2595 10.4669 25.1558 10.0662 24.9485 9.72848C24.7412 9.39073 24.4561 9.13245 24.0933 8.95364C23.737 8.77483 23.3288 8.68543 22.8688 8.68543C22.3894 8.68543 21.9715 8.78477 21.6152 8.98344C21.2588 9.18212 20.9802 9.46358 20.7794 9.82781C20.585 10.1921 20.4879 10.6258 20.4879 11.1291H18C18 10.1954 18.2073 9.38411 18.622 8.69536C19.0431 8 19.6229 7.46026 20.3615 7.07616C21.1001 6.69205 21.9456 6.5 22.898 6.5C23.8763 6.5 24.7315 6.68543 25.4636 7.05629C26.1957 7.42715 26.7658 7.93709 27.174 8.58609C27.5821 9.22848 27.7862 9.96358 27.7862 10.7914C27.7862 11.3477 27.6825 11.894 27.4752 12.4305C27.2679 12.9603 26.9018 13.553 26.3771 14.2086C25.8588 14.8576 25.1299 15.6424 24.1905 16.5629L21.7026 19.1556V19.2649H28V21.5H18.068Z" fill="#33282C"/>
</g>
<defs>
<clipPath id="clip0_509_567">
<rect width="52" height="52" fill="white" transform="translate(0 0.5)"/>
</clipPath>
</defs>
</svg>
