<svg width="52" height="52" viewBox="0 0 52 52" fill="none" xmlns="http://www.w3.org/2000/svg">
<g clip-path="url(#clip0_416_599)">
<path d="M30.8148 14.4283H34.6667C42.5745 14.4283 42.9327 29.8357 52 29.8357H17.3333C8.26607 29.8357 7.90785 14.4283 0 14.4283H15.4074" stroke="#33282C" stroke-width="1.5" stroke-miterlimit="10" stroke-linecap="round" stroke-linejoin="round"/>
<path d="M0 22.132C3.94815 22.132 6.01852 25.9838 8.23333 29.8357C10.4385 33.6875 12.7978 37.5394 17.3333 37.5394H52C48.9927 37.5394 46.9425 35.8455 45.2593 33.5816" stroke="#33282C" stroke-width="1.5" stroke-miterlimit="10" stroke-linecap="round" stroke-linejoin="round"/>
<path d="M45.2593 41.2853C46.9425 43.5502 48.9927 45.2431 52 45.2431H17.3333C8.26222 45.2431 7.90593 29.8357 0 29.8357" stroke="#33282C" stroke-width="1.5" stroke-miterlimit="10" stroke-linecap="round" stroke-linejoin="round"/>
<path d="M23.4749 21C22.4234 21 21.4892 20.8268 20.6721 20.4804C19.8551 20.1275 19.2088 19.6373 18.7333 19.0098C18.2645 18.3824 18.0201 17.6569 18 16.8333H20.7324C20.7525 17.232 20.8831 17.5784 21.1242 17.8725C21.372 18.1601 21.7002 18.3856 22.1087 18.549C22.5172 18.7059 22.9726 18.7843 23.4749 18.7843C24.0107 18.7843 24.4828 18.6928 24.8913 18.5098C25.3065 18.3203 25.6314 18.0654 25.8658 17.7451C26.1002 17.4183 26.2174 17.0425 26.2174 16.6176C26.2174 16.1732 26.0968 15.781 25.8557 15.4412C25.6213 15.1013 25.2798 14.8366 24.8311 14.6471C24.3823 14.4575 23.8432 14.3627 23.2137 14.3627H21.8776V12.3235H23.2137C23.7227 12.3235 24.1747 12.2353 24.5699 12.0588C24.965 11.8824 25.2731 11.6373 25.4941 11.3235C25.7151 11.0033 25.8256 10.6307 25.8256 10.2059C25.8256 9.79412 25.7285 9.43464 25.5342 9.12745C25.3467 8.82026 25.0788 8.5817 24.7306 8.41176C24.3823 8.24183 23.9738 8.15686 23.505 8.15686C23.0496 8.15686 22.6244 8.23856 22.2292 8.40196C21.8408 8.55882 21.526 8.78431 21.2849 9.07843C21.0505 9.37255 20.9266 9.72549 20.9132 10.1373H18.3114C18.3248 9.32026 18.5626 8.60131 19.0247 7.98039C19.4935 7.35948 20.1196 6.87582 20.9032 6.52941C21.6868 6.17647 22.5641 6 23.5352 6C24.5263 6 25.3903 6.18301 26.1269 6.54902C26.8703 6.9085 27.4429 7.39542 27.8447 8.0098C28.2533 8.62418 28.4575 9.30065 28.4575 10.0392C28.4575 10.8627 28.2097 11.5523 27.7142 12.1078C27.2186 12.6634 26.5656 13.0294 25.7553 13.2059V13.3137C26.8 13.4575 27.6003 13.8366 28.1562 14.451C28.7187 15.0654 29 15.8301 29 16.7451C29 17.5621 28.7623 18.2941 28.2868 18.9412C27.8113 19.5817 27.1583 20.085 26.3279 20.451C25.4974 20.817 24.5464 21 23.4749 21Z" fill="#33282C"/>
</g>
<defs>
<clipPath id="clip0_416_599">
<rect width="52" height="52" fill="white"/>
</clipPath>
</defs>
</svg>
