<svg width="200" height="38" viewBox="0 0 200 38" fill="none" xmlns="http://www.w3.org/2000/svg">
<g clip-path="url(#clip0_319_7)">
<path fill-rule="evenodd" clip-rule="evenodd" d="M169.934 0.69625C168.908 1.80938 166.645 4.6769 165.551 6.24807C164.241 8.13235 162.395 11.3718 161.803 12.8282C160.375 16.3408 160.489 21.1773 162.054 23.4772C162.292 23.8266 162.984 24.6321 163.593 25.2677C164.483 26.1963 164.927 26.532 165.861 26.978C167.672 27.844 168.617 28.0555 170.673 28.0547C172.383 28.0541 172.511 28.0322 173.6 27.56C175.165 26.8798 177.086 25.5296 178.039 24.4382C179.332 22.9575 179.682 21.5829 179.686 17.9559C179.689 15.8846 179.535 14.9875 178.808 12.8256C178.076 10.645 177.344 9.18537 175.775 6.76887C173.665 3.5176 171.012 0 170.671 0C170.619 0 170.288 0.313239 169.934 0.69625ZM1.33631 6.98655C0.752561 7.11158 0.286363 7.7039 0.286363 8.32041C0.286363 8.97312 0.597352 9.38501 1.41105 9.80995C2.4358 10.3451 2.36249 9.41917 2.36249 21.8262C2.36249 30.5725 2.32197 33.1702 2.17936 33.5818C2.05136 33.9509 1.76285 34.2746 1.22205 34.656C0.321299 35.2909 0 35.732 0 36.3334C0 36.9038 0.664791 37.4767 1.46833 37.5989C1.80266 37.6499 6.36084 37.6658 11.5977 37.6345C19.9384 37.5845 21.279 37.5454 22.4079 37.3202C25.4959 36.704 27.8151 35.2019 28.9966 33.053C29.6603 31.8462 29.9249 30.6949 29.9249 29.0147C29.9249 26.8059 29.3061 25.3438 27.6517 23.6442C26.6816 22.6475 25.5257 21.942 24.0808 21.4649C23.4363 21.2521 22.9091 21.0594 22.9091 21.0369C22.9091 21.0143 23.2474 20.8201 23.6607 20.6054C26.2113 19.281 27.808 16.9581 28.0206 14.2624C28.2989 10.7318 26.4872 8.46948 22.4906 7.35739L21.1192 6.97584L11.3829 6.94799C6.02793 6.9326 1.50699 6.9499 1.33631 6.98655ZM32.5737 6.99461C31.6582 7.22298 31.499 8.25415 32.2655 8.99262C32.529 9.2465 32.9135 9.57117 33.1198 9.71408C33.3421 9.86785 33.5571 10.2097 33.6472 10.5519C33.75 10.9427 33.7863 14.8445 33.7592 22.6047C33.7263 32.0829 33.6847 34.1327 33.5211 34.3845C33.4119 34.5522 33.0401 34.8725 32.6947 35.0962C31.9796 35.5594 31.7863 35.8534 31.7863 36.4781C31.7863 37.592 32.3813 37.7021 38.0937 37.6447C42.6042 37.5995 42.8068 37.5854 43.1946 37.2897C43.9724 36.6969 43.7454 35.7327 42.6582 35.0116C42.2787 34.7599 41.9163 34.4472 41.8527 34.3168C41.7126 34.0288 41.6096 12.1303 41.7433 10.9964C41.8237 10.3132 41.9142 10.127 42.3494 9.75043C43.6495 8.62545 43.8883 8.16635 43.5301 7.48124C43.2518 6.94887 42.6384 6.88863 37.6711 6.90621C35.025 6.9156 32.7312 6.95533 32.5737 6.99461ZM118.309 7.17578C117.06 7.75667 115.953 9.29399 114.178 12.9168C112.473 16.3976 110.511 21.2302 108.295 27.4103C106.252 33.107 105.797 34.1995 105.274 34.666C103.977 35.8226 103.807 36.0308 103.807 36.458C103.807 36.7295 103.942 37.0172 104.176 37.2422L104.545 37.5975H108.252C112.384 37.5975 112.332 37.6097 112.494 36.5911C112.574 36.0851 112.535 36.0049 111.967 35.5021C110.475 34.1803 110.491 34.2038 110.588 33.449C110.637 33.0703 111.011 31.6878 111.42 30.3769L112.163 27.9934L117.895 28.0316L123.625 28.0699L124.393 30.4884C124.815 31.8186 125.197 33.2202 125.242 33.6031C125.322 34.2911 125.315 34.3069 124.59 34.98C123.745 35.765 123.526 36.4121 123.906 37.0057C124.308 37.6336 124.874 37.6939 129.892 37.6439C134.383 37.5995 134.586 37.5852 134.974 37.2898C135.266 37.0672 135.39 36.8325 135.423 36.4415C135.47 35.8785 135.163 35.456 134.11 34.6283C133.765 34.3568 133.509 33.7265 132.443 30.529C130.804 25.6122 130.246 24.1119 128.332 19.495C127.136 16.6096 124.644 11.3141 123.715 9.68565C122.934 8.31631 122.215 7.50074 121.49 7.16273C120.701 6.79525 119.114 6.8017 118.309 7.17578ZM59.7782 7.12755C58.2455 7.43654 57.7751 7.55615 56.847 7.87261C53.2837 9.0879 49.9464 11.9574 48.3607 15.169C47.1343 17.653 46.7534 19.5842 46.8618 22.7687C46.9465 25.2531 47.1582 26.4134 47.8275 28.0593C48.8534 30.5824 51.1541 33.3252 53.6305 34.9777C58.8143 38.4368 66.0035 38.3462 71.412 34.7536C72.5567 33.9932 74.5992 31.9892 75.3857 30.8549C77.1976 28.2417 77.9965 25.2152 77.8423 21.5471C77.725 18.7594 77.2647 16.9159 76.1643 14.8275C74.5577 11.778 71.6019 9.15723 68.4742 8.00879C66.5434 7.29978 64.8362 7.03404 62.333 7.0528C61.0853 7.06218 59.9357 7.09574 59.7782 7.12755ZM81.6629 7.42965C81.0932 7.72281 80.8308 8.20989 80.9597 8.73538C81.0532 9.11706 81.2498 9.33459 82.2577 10.1716L82.6873 10.5282L82.7256 22.1988C82.7516 30.1497 82.7158 33.961 82.6133 34.1572C82.5305 34.3156 82.2101 34.5772 81.9009 34.7387C81.1752 35.1175 80.6111 35.7452 80.6111 36.1735C80.6111 36.3593 80.7714 36.6755 80.9674 36.8762L81.3236 37.2409L86.9748 37.1992C92.4326 37.1593 92.6337 37.1477 92.846 36.8646C93.4872 36.0096 93.175 35.3494 91.8121 34.6771C91.2954 34.422 90.8806 34.1075 90.7886 33.9006C90.6875 33.6734 90.6338 31.8512 90.6338 28.6493V23.7458H94.5758C98.9428 23.7458 99.1021 23.7732 100.1 24.6956C100.986 25.5153 101.775 25.5785 102.289 24.8708C102.567 24.4876 102.589 24.2677 102.589 21.9325C102.589 19.7685 102.553 19.3523 102.337 19.0143C101.859 18.2674 101.042 18.3029 100.221 19.1063C99.1673 20.1373 99.1567 20.1395 94.6787 20.2016L90.6338 20.2579L90.6372 16.2486C90.6408 12.0148 90.7161 11.2839 91.1999 10.7881C91.4819 10.4992 91.6773 10.4776 94.3959 10.4347C99.3023 10.357 100.386 10.652 102.129 12.5403C103.623 14.1577 104.322 14.4358 105.043 13.6986C105.406 13.3274 105.407 13.314 105.359 11.17C105.302 8.70283 105.106 8.06903 104.236 7.55292C103.746 7.26226 103.498 7.25507 92.9247 7.22649C83.306 7.2004 82.0647 7.22282 81.6629 7.42965ZM181.698 7.612C181.063 7.74216 180.572 8.0573 180.465 8.40396C180.298 8.9444 180.882 10.938 181.91 13.3387C183.618 17.3202 184.572 20.6084 184.345 21.7235C183.991 23.4597 181.347 25.9649 178.106 27.6362C175.817 28.8164 173.231 30.6897 172.457 31.7285C171.929 32.4365 171.639 33.4936 171.752 34.2941C172.067 36.5194 172.933 36.8752 176.209 36.1232C181.007 35.0214 184.443 33.5101 188.227 30.836C191.45 28.5591 196.903 22.3232 198.509 19.0795C199.219 17.6444 199.164 16.3016 198.358 15.3883C196.815 13.6392 192.218 10.7957 188.92 9.55065C188.295 9.31437 187.428 8.98778 186.995 8.82493C185.443 8.24097 182.712 7.46161 182.341 7.4959C182.263 7.50323 181.973 7.55556 181.698 7.612ZM157.285 7.86397C155.506 8.33522 151.422 9.82416 149.697 10.6299C147.252 11.7716 143.523 14.2884 142.431 15.534C141.761 16.298 141.599 16.8857 141.778 17.9014C141.972 19.0009 142.686 20.3175 144.194 22.36C146.017 24.8293 146.679 25.5971 148.967 27.9048C153.21 32.1813 157.636 34.6184 164.086 36.2289C166.314 36.7853 167.48 36.84 168.048 36.4145C169.027 35.681 169.277 33.8426 168.583 32.4693C167.982 31.2793 165.514 29.3311 162.888 27.9721C158.919 25.92 156.367 23.3694 156.357 21.4471C156.351 20.3247 157.199 17.4371 158.349 14.6582C159.695 11.4091 160.233 9.83663 160.267 9.05272C160.302 8.20872 159.815 7.86147 158.533 7.81955C158.004 7.80225 157.442 7.82219 157.285 7.86397ZM64.813 10.2687C66.0221 10.6947 66.7321 11.1728 67.6314 12.1674C69.9248 14.7032 70.8864 19.5205 70.2357 25.2138C69.8642 28.4662 69.02 30.7921 67.657 32.3191C64.9591 35.3413 59.9156 35.3703 57.2102 32.3789C55.9007 30.931 55.1491 29.2893 54.5995 26.6773C54.2244 24.8944 54.2227 19.3867 54.5968 17.6062C55.5536 13.0522 57.5987 10.576 60.9009 9.97279C61.9341 9.78415 63.848 9.92897 64.813 10.2687ZM17.5054 10.5374C19.2442 11.1159 20.0252 12.4164 19.8646 14.4649C19.6157 17.6398 16.4479 19.7562 11.1323 20.2992L10.1659 20.3978V15.7076C10.1659 13.1281 10.2077 10.9058 10.2589 10.7693C10.4673 10.2135 11.107 10.1065 13.8886 10.1623C16.1341 10.2073 16.6848 10.2645 17.5054 10.5374ZM118.463 15.061C119.299 16.7657 122.133 23.7753 122.133 24.138C122.133 24.1641 120.204 24.1856 117.845 24.1856H113.555L113.919 23.1961C114.946 20.4032 117.706 14.0716 117.898 14.0716C117.941 14.0716 118.196 14.5167 118.463 15.061ZM17.9989 23.6096C19.7841 24.2385 21.1308 25.5505 21.5669 27.0855C21.867 28.1426 21.7695 29.9908 21.3641 30.9282C20.3653 33.2383 17.6096 34.4399 13.3014 34.4441C11.0332 34.4464 10.5368 34.3192 10.3195 33.6806C10.2229 33.397 10.1659 31.5325 10.1659 28.6532V24.0768L11.2755 23.9733C11.8859 23.9164 13.1905 23.7162 14.1749 23.5283C16.113 23.1586 16.7569 23.1722 17.9989 23.6096Z" fill="#9D1C45"/>
</g>
<defs>
<clipPath id="clip0_319_7">
<rect width="200" height="38" fill="white"/>
</clipPath>
</defs>
</svg>
