<svg width="77" height="81" viewBox="0 0 77 81" fill="none" xmlns="http://www.w3.org/2000/svg">
<g clip-path="url(#clip0_319_71)">
<path d="M36.3798 62.6438C36.1261 62.0357 35.6977 61.5166 35.1489 61.1521C34.6 60.7876 33.9554 60.594 33.2965 60.5959C32.6377 60.5978 31.9942 60.7951 31.4475 61.1628C30.9008 61.5305 30.4754 62.0521 30.2252 62.6616L25.9067 73.37L24.6357 76.4283C24.0437 77.8652 23.7944 79.4201 23.9074 80.97C24.0204 82.52 24.4926 84.0223 25.2867 85.3582C26.0141 86.6083 27.0264 87.6692 28.2412 88.4543C29.4559 89.2394 30.8389 89.7267 32.2775 89.8765C32.9602 89.9478 33.6485 89.9481 34.3312 89.8773C35.7706 89.728 37.1544 89.2409 38.3699 88.4556C39.5854 87.6703 40.5982 86.609 41.3259 85.3582C42.1202 84.0224 42.5925 82.52 42.7055 80.9701C42.8185 79.4201 42.569 77.8651 41.9768 76.4283L36.3798 62.6438ZM38.4637 83.653C37.9999 84.4562 37.3529 85.1385 36.5756 85.6444C35.7982 86.1502 34.9124 86.4653 33.9902 86.5641C33.5344 86.6113 33.075 86.6113 32.6192 86.5641C31.6974 86.4649 30.8121 86.1496 30.0352 85.6437C29.2583 85.1379 28.6117 84.4559 28.1481 83.653C27.6187 82.7638 27.3036 81.7635 27.2277 80.7313C27.1518 79.6992 27.3173 78.6635 27.711 77.7064L33.2989 63.907L37.6305 74.6488L38.9015 77.7062C39.2953 78.6634 39.4608 79.6991 39.3848 80.7313C39.3088 81.7636 38.9934 82.7639 38.4637 83.653ZM9.99174 56.6234C9.55013 56.6235 9.12664 56.799 8.81443 57.1113C8.50222 57.4236 8.32686 57.8472 8.32691 58.2888V59.9544C8.3317 60.3929 8.50924 60.8118 8.82099 61.1201C9.13274 61.4285 9.55354 61.6014 9.99204 61.6014C10.4305 61.6014 10.8513 61.4285 11.1631 61.1201C11.4748 60.8118 11.6524 60.3929 11.6572 59.9544V58.2888C11.6572 58.0701 11.6141 57.8535 11.5304 57.6514C11.4467 57.4493 11.324 57.2657 11.1693 57.1111C11.0146 56.9564 10.831 56.8338 10.6289 56.7501C10.4269 56.6664 10.2105 56.6233 9.99174 56.6234ZM9.99174 64.9503C9.55013 64.9504 9.12664 65.1259 8.81443 65.4382C8.50222 65.7505 8.32686 66.1741 8.32691 66.6157V88.2646C8.32451 88.4848 8.3658 88.7033 8.4484 88.9074C8.53101 89.1115 8.65328 89.2973 8.80814 89.4538C8.963 89.6104 9.14737 89.7347 9.35059 89.8195C9.5538 89.9043 9.77183 89.948 9.99204 89.948C10.2122 89.948 10.4303 89.9043 10.6335 89.8195C10.8367 89.7347 11.0211 89.6104 11.1759 89.4538C11.3308 89.2973 11.4531 89.1115 11.5357 88.9074C11.6183 88.7033 11.6596 88.4848 11.6572 88.2646V66.6157C11.6572 66.397 11.6141 66.1804 11.5304 65.9783C11.4467 65.7762 11.324 65.5926 11.1693 65.438C11.0146 65.2833 10.831 65.1607 10.6289 65.077C10.4269 64.9933 10.2105 64.9502 9.99174 64.9503Z" fill="#9D1C45"/>
<path d="M90.6098 54.086C86.53 51.9872 83.0005 50.1264 81.7226 46.0287L89.3162 38.4351C89.6255 38.1258 89.8709 37.7586 90.0383 37.3545C90.2057 36.9503 90.2918 36.5172 90.2918 36.0798C90.2918 35.6424 90.2057 35.2092 90.0383 34.8051C89.8709 34.401 89.6255 34.0338 89.3162 33.7245L78.7193 23.126C78.3367 22.7436 77.8666 22.4602 77.3497 22.3005C76.8329 22.1407 76.2848 22.1094 75.7532 22.2092L61.204 1.42455C60.9251 1.02587 60.5622 0.693116 60.1409 0.449682C59.7196 0.206247 59.2501 0.0580351 58.7654 0.015463C58.2808 -0.0267885 57.7928 0.0375682 57.3358 0.204013C56.8787 0.370458 56.4636 0.634954 56.1196 0.978924L37.2159 19.8825C36.7058 20.3954 36.3759 21.0599 36.2756 21.7762C36.1753 22.4926 36.31 23.2221 36.6595 23.8554L39.1063 28.2606L34.7017 25.8123C34.068 25.4637 33.3385 25.3296 32.6223 25.43C31.906 25.5304 31.2416 25.86 30.7282 26.3694L25.9555 31.1428C25.7491 31.3545 25.5721 31.5931 25.4293 31.852C18.1835 32.2496 0 33.857 0 39.9705V46.6318C0.0268594 47.2234 0.191414 47.8006 0.480571 48.3174C0.769728 48.8342 1.17551 49.2763 1.66562 49.6087V91.9082C1.67554 92.0026 1.69419 92.0957 1.72217 92.1871L1.72614 92.2096C1.74856 92.3584 1.79101 92.5032 1.85232 92.6397C3.84948 98.3538 22.2037 99.9218 33.3059 99.9218C45.0585 99.9218 64.9471 98.1679 64.9471 91.5951V62.8043L71.0055 56.7458C75.1022 58.0237 76.9638 61.5526 79.0628 65.633C80.1586 67.9864 81.5279 70.2025 83.1424 72.2354C83.8674 73.0788 84.7603 73.7618 85.764 74.2408C86.7678 74.7197 87.8605 74.9841 88.9722 75.017C90.1276 75.0581 91.2791 74.8611 92.3552 74.4383C93.4312 74.0155 94.4089 73.376 95.2273 72.5594L97.5376 70.2505C98.3539 69.4319 98.9933 68.4543 99.4159 67.3782C99.8386 66.3022 100.035 65.1507 99.9944 63.9954C99.9618 62.8838 99.6976 61.7913 99.2188 60.7876C98.74 59.784 98.0571 58.8912 97.2138 58.1664C95.1804 56.5515 92.9638 55.1819 90.6098 54.086ZM86.9625 36.0782L61.0556 61.9857L50.4579 51.3872L76.3648 25.4813L86.9625 36.0782ZM4.31296 47.4052C3.93462 47.2184 3.60022 46.9535 3.33184 46.6279L3.33025 46.6287V44.023C3.98752 44.3451 4.66412 44.6262 5.35618 44.8646L5.42899 44.8894L5.43455 44.8918C11.3209 47.0239 21.7271 48.2973 33.3059 48.2973C36.6161 48.2973 39.9247 48.1762 43.1611 47.9586L47.1874 50.7773C47.1781 50.8254 47.1804 50.875 47.1735 50.9238C42.5661 51.3957 37.9374 51.6306 33.3059 51.6275C20.3964 51.6275 8.48267 49.8954 4.31296 47.4052ZM34.143 41.6453L38.7349 44.8593C36.9329 44.9275 35.1203 44.9662 33.3059 44.9662C26.3518 45.0267 19.4061 44.4693 12.5506 43.3006C19.4061 42.1326 26.3518 41.5756 33.3059 41.636C33.5904 41.6405 33.8654 41.6429 34.1422 41.6453H34.143ZM33.0835 28.7241L42.5838 34.0019C42.9001 34.1779 43.2653 34.2461 43.6238 34.196C43.9824 34.146 44.3149 33.9804 44.571 33.7245C44.8269 33.4684 44.9924 33.1359 45.0425 32.7773C45.0925 32.4188 45.0244 32.0537 44.8484 31.7373L39.5712 22.237L46.8138 14.9944L57.4216 27.7241C57.6062 27.9562 57.8495 28.1348 58.1262 28.2413C58.403 28.3479 58.7031 28.3786 58.9957 28.3302C59.2883 28.282 59.5626 28.1565 59.7904 27.9667C60.0181 27.7769 60.1911 27.5297 60.2913 27.2507C60.3918 26.9717 60.4159 26.6709 60.3611 26.3794C60.3064 26.0879 60.1747 25.8164 59.9798 25.5928L49.1786 12.6297L58.4749 3.33341L73.0205 24.1141L49.0901 48.0447L28.31 33.4981L33.0835 28.7241ZM25.4456 35.1929C25.6867 35.6015 26.0122 35.954 26.4003 36.2268L29.4425 38.3551C19.7652 38.597 11.2377 39.7424 5.9639 41.5306C4.98106 41.237 4.07961 40.7196 3.33025 40.0192V40.0106C3.83797 38.6839 10.8177 35.9929 25.4456 35.1933V35.1929ZM33.3059 96.5912C15.6773 96.5912 5.52363 93.3313 4.99587 91.576V51.3864C10.7387 53.5884 21.3327 54.9578 33.3059 54.9578C38.3802 54.965 43.451 54.6902 48.4949 54.1348L58.7003 64.3402C59.0088 64.6506 59.3759 64.8966 59.7802 65.0641C60.1845 65.2316 60.618 65.3172 61.0556 65.316C61.2441 65.3138 61.4316 65.2951 61.6169 65.261V91.5723C61.1052 93.327 50.951 96.5914 33.3059 96.5914V96.5912ZM95.1823 67.8962L92.8728 70.2057C92.3777 70.6976 91.7871 71.083 91.1375 71.338C90.4878 71.593 89.7927 71.7122 89.0952 71.6884C88.4416 71.6707 87.799 71.5169 87.2082 71.2368C86.6175 70.9567 86.0917 70.5564 85.6643 70.0616C84.2251 68.2248 83.0035 66.2274 82.024 64.1095C80.0957 60.36 77.9513 56.1903 73.6034 54.1481L79.1239 48.6268C81.1661 52.9755 85.335 55.1193 89.0853 57.0482C91.2032 58.0277 93.2006 59.2493 95.0375 60.6885C95.5323 61.1158 95.9325 61.6416 96.2128 62.2322C96.493 62.8229 96.647 63.4655 96.665 64.119C96.7146 65.5294 96.1783 66.8967 95.1823 67.8962Z" fill="#9D1C45"/>
<path d="M57.5232 49.032L56.3458 50.2093C56.1339 50.4148 55.9805 50.673 55.9013 50.9574C55.822 51.2417 55.8198 51.542 55.8949 51.8275C55.9698 52.113 56.1192 52.3734 56.3279 52.5821C56.5366 52.7908 56.7969 52.9403 57.0824 53.0153C57.3678 53.0903 57.668 53.088 57.9523 53.0089C58.2366 52.9297 58.4948 52.7764 58.7003 52.5646L59.8785 51.3873C60.1841 51.0735 60.354 50.652 60.3512 50.214C60.3485 49.7759 60.1734 49.3566 59.8638 49.0467C59.219 48.4026 58.1757 48.3959 57.5232 49.032ZM75.1861 31.3693L62.2337 44.3222C62.0218 44.5277 61.8684 44.7859 61.7892 45.0703C61.7099 45.3546 61.7077 45.6549 61.7828 45.9404C61.8578 46.2259 62.0073 46.4864 62.2161 46.6952C62.4248 46.9039 62.6853 47.0534 62.9708 47.1285C63.2563 47.2034 63.5566 47.2011 63.8409 47.1218C64.1252 47.0426 64.3834 46.8893 64.589 46.6775L77.5412 33.7235C77.753 33.518 77.9063 33.2598 77.9856 32.9756C78.0649 32.6913 78.0672 32.391 77.9924 32.1055C77.9174 31.82 77.7679 31.5595 77.5591 31.3509C77.3503 31.1422 77.0897 30.9928 76.8041 30.9181C76.5186 30.843 76.2183 30.8453 75.9339 30.9246C75.6496 31.0038 75.3914 31.1573 75.1859 31.3693H75.1861Z" fill="#9D1C45"/>
</g>
<defs>
<clipPath id="clip0_319_71">
<rect width="100" height="100" fill="white"/>
</clipPath>
</defs>
</svg>
