<svg width="77" height="95" viewBox="0 0 77 95" fill="none" xmlns="http://www.w3.org/2000/svg">
<path d="M96.875 35.9375H53.125C52.1875 35.9375 51.5625 36.5625 51.5625 37.5V47.9688L47.6563 47.0312L43.4375 42.8125C48.125 38.4375 48.4375 29.2188 48.4375 26.5625C54.2188 26.5625 58.2813 25 59.8438 22.1875C60.4688 20.9375 60.9375 18.9062 59.2188 16.25C57.5 13.75 55.3125 12.5 52.3438 12.5H46.7188C46.25 9.6875 44.375 3.75 37.0313 2.03125C35.4688 1.71875 33.2813 1.5625 32.8125 1.5625C16.5625 1.5625 14.0625 9.375 14.0625 14.0625V21.875C14.0625 22.9688 14.5312 24.2188 15.4688 25.1562C14.6875 26.0938 14.0625 27.6562 14.0625 29.6875C14.0625 33.5938 16.7188 35.3125 19.0625 35.7812C19.8438 38.125 20.9375 39.8438 22.0313 41.25L16.25 47.0312C15 48.4375 16.5625 49.8438 16.5625 49.8438L9.84375 56.5625C9.21875 57.3438 3.125 63.5938 3.125 68.75C3.125 69.0625 3.125 69.2188 3.28125 69.375L11.0938 85C11.25 85.4688 11.7188 85.625 12.0312 85.7812C12.1875 85.7812 13.5938 86.25 15.625 86.25C15.625 86.4062 15.4688 95.1562 15.4688 95.1562C15.4688 96.0938 16.0938 96.7188 17.0312 96.7188C17.9688 96.7188 18.5938 96.0938 18.5938 95.1562V90.7812C20.9375 93.5938 24.6875 96.7188 29.5313 96.7188C34.375 96.7188 43.2813 93.5938 51.0938 90.7812C52.5 90.3125 53.75 89.8438 55 89.375C55.3125 89.2188 55.625 89.2188 56.0938 89.0625V95.3125C56.0938 96.25 56.7188 96.875 57.6563 96.875C58.5938 96.875 59.2188 96.25 59.2188 95.3125V88.2812C62.0313 87.6562 64.6875 87.3438 67.0313 87.5H77.9688C80.625 87.5 84.2188 86.5625 85.3125 83.75C85.625 82.9688 85.7813 82.1875 85.7813 81.25H96.7188C97.6563 81.25 98.2813 80.625 98.2813 79.6875V37.5C98.4375 36.5625 97.8125 35.9375 96.875 35.9375ZM79.6875 39.0625V47.5L75.625 45.4688C75.4688 45.3125 75.3125 45.3125 75 45.3125C74.6875 45.3125 74.5312 45.3125 74.375 45.4688L70.3125 47.5V39.0625H79.6875ZM34.0625 47.6562C33.9063 47.3438 33.125 46.875 33.125 46.875C35 46.875 36.5625 46.5625 38.125 46.0938L37.5 47.9688L35.9375 52.0312C35.9375 52.0312 34.2188 47.6562 34.0625 47.6562ZM41.7188 45.4688L45 48.75L43.4375 51.7187L40.7813 48.125L41.7188 45.4688ZM44.5313 15.625C43.125 16.7188 41.875 18.125 40.9375 19.375C38.2813 23.2812 35.9375 23.4375 35.9375 23.4375H27.6563C28.2813 22.8125 28.9062 22.0312 29.375 21.25C31.25 18.4375 34.6875 15.625 37.5 15.625H44.5313ZM56.5625 18.125C57.3438 19.2188 57.5 20.1562 57.0313 20.7812C56.4063 22.0312 53.75 23.4375 48.4375 23.4375H48.2813C47.9688 20.625 47.5 18.5938 47.1875 17.5C48.9063 16.4062 50.625 15.625 52.3438 15.625C54.0625 15.625 55.4688 16.4063 56.5625 18.125ZM17.1875 14.0625C17.1875 8.4375 21.7188 6.09375 26.875 5.15625C24.2188 7.96875 23.4375 11.5625 23.4375 14.0625C23.4375 15 24.0625 15.625 25 15.625C25.7813 15.625 26.5625 15 26.5625 14.0625C26.5625 13.125 26.875 5.625 34.5313 4.84375C41.25 5.46875 43.125 10.1562 43.5938 12.5H37.5C33.2813 12.5 29.0625 15.9375 26.875 19.375C24.2188 23.2812 21.875 23.4375 21.875 23.4375H18.75C17.5 23.4375 17.1875 22.6562 17.1875 21.875V14.0625ZM20.3125 32.8125C19.8438 32.8125 17.1875 32.6562 17.1875 29.6875C17.1875 26.875 18.4375 26.5625 18.75 26.5625H35.9375C36.4063 26.5625 40 26.4062 43.4375 21.25C43.75 20.7812 44.0625 20.3125 44.5313 19.8438C44.8438 21.25 45.3125 23.5938 45.3125 26.7188C45.3125 26.875 45.9375 35.4688 41.4063 40.4688C39.375 42.6562 36.4063 43.75 32.8125 43.75C32.6563 43.75 24.5313 43.5938 21.875 33.9062C21.5625 33.2813 20.9375 32.8125 20.3125 32.8125ZM23.5938 44.2188L30.4688 48.75L26.25 54.0625L19.375 48.4375L23.5938 44.2188ZM6.25 68.4375C6.5625 65.1562 10.4688 60.4688 12.0312 58.9062L18.9063 52.0312L25.4688 57.5C25.7812 57.8125 26.0938 57.8125 26.4063 57.8125H26.5625C27.0313 57.8125 27.3438 57.5 27.6563 57.1875L32.1875 51.4063L34.375 56.7188C34.6875 57.3438 35.1562 57.6563 35.7812 57.6563C36.4063 57.6563 37.0312 57.3438 37.1875 56.7188L39.2188 51.5625L42.1875 55.625C42.5 56.0937 42.9688 56.25 43.5938 56.25C44.0625 56.25 44.5313 55.9375 44.8438 55.4688L47.3438 50.3125L51.25 51.25V76.0938C48.9063 76.875 46.0938 77.8125 43.125 78.75C40.7813 79.5312 38.4375 80.3125 36.25 81.0938C33.5938 82.0312 30.4688 80.9375 29.0625 78.4375L22.9688 67.9688C22.5 67.1875 21.5625 67.0312 20.7813 67.5C20 67.9688 19.8438 68.9062 20.3125 69.6875L24.6875 76.875C22.1875 84.2188 15.4688 83.5938 13.4375 83.125L6.25 68.4375ZM82.5 82.5C82.0313 83.75 79.8438 84.375 78.125 84.375H67.3438C62.1875 84.0625 56.875 85.625 54.2188 86.5625C52.9688 87.0312 51.5625 87.5 50.3125 87.9688C42.9688 90.4688 34.0625 93.75 29.6875 93.75C24.2188 93.75 20.3125 88.125 19.0625 86.0938C21.7188 85.4688 24.6875 84.0625 26.875 80.3125C28.5938 82.9688 31.5625 84.5312 34.6875 84.5312C35.625 84.5312 36.5625 84.375 37.5 84.0625C39.5313 83.4375 41.875 82.6562 44.375 81.7188C51.25 79.375 59.6875 76.5625 61.875 76.5625H72.8125C73.2812 76.5625 74.2188 76.875 74.375 78.125H70.3125C69.375 78.125 68.75 78.75 68.75 79.6875C68.75 80.625 69.375 81.25 70.3125 81.25C70.3125 81.25 82.1875 81.4062 82.8125 81.4062C82.8125 81.7188 82.6563 82.1875 82.5 82.5ZM95.3125 78.125H77.5C77.3438 74.6875 74.6875 73.4375 72.8125 73.4375H61.875C60.4688 73.4375 58.125 74.0625 54.6875 75V39.0625H67.1875V50C67.1875 50.4688 67.5 51.0938 67.9688 51.4063C68.4375 51.7188 69.0625 51.7188 69.5313 51.4063L75.1562 48.5938L80.7813 51.4063C80.7813 51.5625 80.9375 51.5625 81.25 51.5625C81.5625 51.5625 81.875 51.5625 82.0313 51.4063C82.5 51.0938 82.8125 50.625 82.8125 50V39.0625H95.3125V78.125Z" fill="#9D1C45"/>
<path d="M67.1875 67.1875H60.9375C60 67.1875 59.375 67.8125 59.375 68.75C59.375 69.6875 60 70.3125 60.9375 70.3125H67.1875C68.125 70.3125 68.75 69.6875 68.75 68.75C68.75 67.8125 68.125 67.1875 67.1875 67.1875ZM60.9375 65.625H64.0625C65 65.625 65.625 65 65.625 64.0625C65.625 63.125 65 62.5 64.0625 62.5H60.9375C60 62.5 59.375 63.125 59.375 64.0625C59.375 65 60 65.625 60.9375 65.625Z" fill="#9D1C45"/>
</svg>
