<svg width="77" height="81" viewBox="0 0 77 81" fill="none" xmlns="http://www.w3.org/2000/svg">
<path fill-rule="evenodd" clip-rule="evenodd" d="M19.2307 36L13.4184 39.2323C13.0693 39.4265 12.6583 39.4773 12.2725 39.3739C11.8866 39.2706 11.556 39.0212 11.3507 38.6785L7.07995 31.5538C6.97311 31.3772 6.90316 31.1808 6.87434 30.9764C6.84552 30.772 6.85842 30.5639 6.91226 30.3646C7.01995 29.9631 7.28764 29.6215 7.65072 29.4185L49.2215 6.30615C49.4502 6.17898 49.7075 6.11224 49.9692 6.11224C50.2309 6.11224 50.4882 6.17898 50.7169 6.30615L92.2861 29.4185C92.4662 29.5188 92.6243 29.6543 92.7511 29.8169C92.8779 29.9795 92.9707 30.1659 93.0241 30.3651C93.0774 30.5642 93.0903 30.7721 93.0618 30.9763C93.0334 31.1805 92.9642 31.3769 92.8584 31.5538L88.5861 38.6785C88.3808 39.0208 88.0506 39.2699 87.665 39.3732C87.2795 39.4766 86.8689 39.426 86.52 39.2323L80.7692 36.0354V83.0354H90C90.408 83.0354 90.7993 83.1975 91.0878 83.486C91.3763 83.7745 91.5384 84.1658 91.5384 84.5738V93.8046C91.5384 94.2126 91.3763 94.604 91.0878 94.8925C90.7993 95.181 90.408 95.3431 90 95.3431H9.99995C9.59193 95.3431 9.20061 95.181 8.9121 94.8925C8.62358 94.604 8.46149 94.2126 8.46149 93.8046V84.5738C8.46149 84.1658 8.62358 83.7745 8.9121 83.486C9.20061 83.1975 9.59193 83.0354 9.99995 83.0354H19.2307V36ZM80.2292 32.2138L86.7138 35.82L89.4015 31.3354L49.9692 9.41077L10.5353 31.3354L13.223 35.82L20.0338 32.0323L49.2215 15.8062C49.4502 15.679 49.7075 15.6122 49.9692 15.6122C50.2309 15.6122 50.4882 15.679 50.7169 15.8062L79.6953 31.9185C79.8912 31.9803 80.0727 32.0807 80.2292 32.2138ZM77.6923 83.0354V34.3246L49.9692 18.9108L22.3076 34.2892V83.0354H36.1538V58.42C36.1538 58.012 36.3159 57.6207 36.6044 57.3321C36.8929 57.0436 37.2842 56.8815 37.6923 56.8815H62.3076C62.7157 56.8815 63.107 57.0436 63.3955 57.3321C63.684 57.6207 63.8461 58.012 63.8461 58.42V83.0354H77.6923ZM88.4615 86.1123H11.5384V92.2662H88.4615V86.1123ZM60.7692 83.0354V59.9585H39.2307V83.0354H60.7692ZM49.9492 53.8031C48.9892 53.8092 41.1692 53.7031 36.3723 48.4692C31.3261 42.9662 31.5369 33.7646 31.5369 33.7646C31.5476 33.373 31.7074 33.0002 31.9835 32.7223C32.2597 32.4445 32.6315 32.2824 33.023 32.2692C33.023 32.2692 41.58 32.02 46.6984 37.6015C48.2323 39.2754 49.2815 41.2923 49.9969 43.2892C50.7138 41.2923 51.763 39.2754 53.2969 37.6015C58.4153 32.02 66.9723 32.2692 66.9723 32.2692C67.3638 32.2824 67.7356 32.4445 68.0118 32.7223C68.2879 33.0002 68.4477 33.373 68.4584 33.7646C68.4584 33.7646 68.6692 42.9662 63.623 48.4692C58.8261 53.7031 51.0061 53.8092 50.0446 53.8031H49.9492ZM48.1784 48.4523C47.7723 45.7908 46.7907 42.2554 44.4292 39.68C41.4246 36.4031 36.9692 35.5938 34.6523 35.4015C34.8107 37.9277 35.5261 42.9938 38.64 46.3908C40.6784 48.6138 43.383 49.7 45.6353 50.2323L40.4015 44.52C40.2595 44.3721 40.1485 44.1973 40.0751 44.0059C40.0016 43.8145 39.9672 43.6103 39.9737 43.4054C39.9803 43.2005 40.0277 42.999 40.1133 42.8127C40.1988 42.6264 40.3207 42.459 40.4719 42.3205C40.623 42.182 40.8003 42.075 40.9934 42.006C41.1864 41.937 41.3913 41.9072 41.596 41.9185C41.8007 41.9298 42.0011 41.9819 42.1854 42.0717C42.3697 42.1615 42.5342 42.2873 42.6692 42.4415L48.1784 48.4523ZM53.7846 50.3569C56.1384 49.88 59.14 48.8062 61.3553 46.3908C64.4692 42.9938 65.1846 37.9277 65.343 35.4015C63.0246 35.5938 58.5707 36.4031 55.5661 39.68C53.3815 42.0631 52.3769 45.2662 51.9169 47.84L56.8661 42.4415C57.1444 42.1516 57.5251 41.9821 57.9268 41.9692C58.3285 41.9564 58.7192 42.1012 59.0155 42.3727C59.3118 42.6443 59.49 43.021 59.5121 43.4223C59.5342 43.8236 59.3985 44.2176 59.1338 44.52L53.7846 50.3569Z" fill="#9D1C45"/>
</svg>
