<svg width="77" height="81" viewBox="0 0 77 81" fill="none" xmlns="http://www.w3.org/2000/svg">
<mask id="path-1-outside-1_319_65" maskUnits="userSpaceOnUse" x="0.482422" y="-0.21875" width="99" height="100" fill="black">
<rect fill="white" x="0.482422" y="-0.21875" width="99" height="100"/>
<path d="M97.9316 56.8965L83.9082 48.8008L97.9316 40.7051C98.2949 40.4961 98.5176 40.1074 98.5176 39.6875C98.5176 39.2676 98.293 38.8809 97.9316 38.6719L70.7188 22.9648C71.0742 21.209 70.7207 19.3379 69.6524 17.8125C69.0703 16.9863 68.8399 16.1309 68.9316 15.1191C69.1719 12.3398 67.6367 9.68164 65.1074 8.5C64.1895 8.07422 63.5625 7.44727 63.1348 6.52734C61.9551 4 59.2949 2.46289 56.5117 2.70508C55.5039 2.79688 54.6504 2.56836 53.8203 1.98242C51.5352 0.380859 48.4629 0.380859 46.1777 1.98242H46.1758C45.3496 2.56641 44.4941 2.79492 43.4824 2.70313C40.7051 2.46289 38.0449 3.99805 36.8633 6.52734C36.4375 7.44531 35.8106 8.07227 34.8906 8.5C32.3633 9.67969 30.8262 12.3398 31.0684 15.123C31.1602 16.1309 30.9316 16.9844 30.3457 17.8145C29.2793 19.3359 28.9258 21.207 29.2813 22.9629L2.06836 38.6699C1.8901 38.7728 1.7421 38.9209 1.63924 39.0992C1.53638 39.2775 1.48229 39.4797 1.48242 39.6856C1.48242 40.1055 1.70703 40.4922 2.06836 40.7031L16.0918 48.7988L2.06836 56.8965C1.8901 56.9994 1.7421 57.1475 1.63924 57.3257C1.53638 57.504 1.48229 57.7063 1.48242 57.9121C1.48249 58.1179 1.53666 58.3201 1.6395 58.4983C1.74234 58.6766 1.89023 58.8247 2.06836 58.9277L17.2656 67.7012V79.8184C17.2657 80.0242 17.3199 80.2263 17.4227 80.4046C17.5255 80.5828 17.6734 80.7309 17.8516 80.834L49.4141 99.0606C49.5923 99.1641 49.7948 99.2187 50.001 99.2187C50.2071 99.2187 50.4096 99.1641 50.5879 99.0606L82.1445 80.834C82.3228 80.7311 82.4708 80.583 82.5737 80.4047C82.6765 80.2264 82.7306 80.0242 82.7305 79.8184V67.7012L97.9277 58.9277C98.291 58.7188 98.5137 58.3301 98.5137 57.9121C98.5137 57.4941 98.2891 57.1055 97.9277 56.8965H97.9316ZM94.9981 39.6875L81.5606 47.4453L65.5293 38.1895L64.6758 35.0039C64.8145 34.9219 64.9551 34.8418 65.1094 34.7715C67.6367 33.5918 69.1738 30.9316 68.9316 28.1484C68.8399 27.1406 69.0684 26.2871 69.6543 25.457C69.7207 25.3633 69.7793 25.2637 69.8418 25.168L94.9981 39.6875ZM50.0039 65.666L20.7871 48.8008L33.6113 41.3965L31.1738 50.4961C31.115 50.7165 31.1215 50.9492 31.1927 51.166C31.264 51.3827 31.3967 51.574 31.5749 51.7165C31.753 51.859 31.9688 51.9465 32.1958 51.9684C32.4229 51.9903 32.6514 51.9457 32.8535 51.8399L39.3145 48.4512L43.2207 54.6191C43.3428 54.812 43.5185 54.9651 43.7264 55.0594C43.9342 55.1538 44.1651 55.1854 44.3906 55.1504C44.6159 55.116 44.8264 55.0169 44.9963 54.865C45.1663 54.7131 45.2883 54.515 45.3477 54.2949L48.5547 42.3359C49.0313 42.4414 49.5156 42.4961 50.002 42.4961C50.4902 42.4961 50.9766 42.4414 51.4551 42.3359L54.6563 54.2969C54.723 54.5468 54.8704 54.7677 55.0756 54.9253C55.2808 55.0828 55.5323 55.1681 55.791 55.168C56.1895 55.168 56.5645 54.9649 56.7832 54.6231L60.6895 48.4551L67.1504 51.8438C67.3525 51.9499 67.5811 51.9948 67.8083 51.973C68.0355 51.9512 68.2514 51.8636 68.4296 51.7211C68.6078 51.5785 68.7406 51.3871 68.8117 51.1702C68.8829 50.9533 68.8892 50.7204 68.8301 50.5L66.3926 41.4004L79.2168 48.8047L50.0059 65.6699L50.0039 65.666ZM43.4883 40.5684C44.4961 40.4766 45.3496 40.7051 46.1797 41.291C46.2422 41.334 46.3066 41.3711 46.3691 41.4121L43.7715 51.0977L40.7188 46.2773C40.5608 46.0285 40.3152 45.848 40.0305 45.7717C39.7458 45.6954 39.4429 45.7288 39.1816 45.8652L34.1348 48.5137L37.1445 37.2754C38.4316 39.4824 40.9043 40.7891 43.4863 40.5664L43.4883 40.5684ZM62.8555 37.2773L65.8652 48.5156L60.8184 45.8672C60.5572 45.7304 60.2541 45.6968 59.9693 45.7731C59.6846 45.8495 59.4389 46.0302 59.2813 46.2793L56.2305 51.0977L53.6367 41.4102C53.6992 41.3691 53.7637 41.332 53.8242 41.2891C54.6504 40.7051 55.5059 40.4766 56.5176 40.5684C59.0957 40.791 61.5664 39.4844 62.8555 37.2773ZM32.2656 19.1641C33.1621 17.8926 33.5469 16.4609 33.4063 14.9141C33.25 13.1133 34.2461 11.3906 35.8809 10.627C37.291 9.97266 38.3379 8.92578 38.9902 7.51758C39.7559 5.87891 41.4785 4.88477 43.2734 5.03906C44.8223 5.17969 46.2539 4.79688 47.5254 3.90039C49.0059 2.86328 50.9922 2.86328 52.4688 3.90039C53.7402 4.79688 55.1719 5.18164 56.7188 5.04102C58.5195 4.88477 60.2422 5.88086 61.0059 7.51563C61.6602 8.92578 62.707 9.97266 64.1152 10.627C65.7539 11.3926 66.7481 13.1152 66.5938 14.9102C66.4531 16.4609 66.8359 17.8926 67.7324 19.1621C68.7695 20.6426 68.7695 22.6309 67.7344 24.1074C66.8379 25.3789 66.4531 26.8105 66.5938 28.3574C66.75 30.1582 65.7539 31.8809 64.1191 32.6445C63.585 32.8908 63.0869 33.2089 62.6387 33.5898C62.5703 33.6387 62.5098 33.6953 62.4551 33.7578C61.8574 34.3105 61.3711 34.9746 61.0098 35.7539C60.2441 37.3926 58.5215 38.3867 56.7266 38.2324C55.1758 38.0898 53.7441 38.4746 52.4746 39.3711C50.9941 40.4082 49.0059 40.4082 47.5293 39.3711C46.4277 38.5938 45.207 38.2031 43.8965 38.2031C43.6934 38.2031 43.4883 38.2129 43.2793 38.2324C41.4785 38.3906 39.7559 37.3926 38.9922 35.7578C38.6289 34.9785 38.1426 34.3125 37.5469 33.7598C37.4922 33.6973 37.4297 33.6426 37.3633 33.5918C36.9155 33.2113 36.4181 32.8933 35.8848 32.6465C34.2461 31.8809 33.252 30.1582 33.4063 28.3633C33.5469 26.8125 33.1641 25.3809 32.2676 24.1113C31.2305 22.6309 31.2305 20.6426 32.2676 19.166L32.2656 19.1641ZM30.1582 25.166C30.2188 25.2637 30.2793 25.3633 30.3457 25.459C30.9297 26.2852 31.1582 27.1406 31.0664 28.1523C30.8262 30.9316 32.3613 33.5898 34.8906 34.7715C35.043 34.8418 35.1856 34.9219 35.3223 35.0039L34.4688 38.1895L18.4375 47.4453L5.00391 39.6875L30.1602 25.168L30.1582 25.166ZM18.4395 50.1543L47.6543 67.0195L34.2168 74.7773L5.00195 57.9141L18.4395 50.1562V50.1543ZM19.6133 69.0566L33.6309 77.1484C33.8125 77.2539 34.0156 77.3047 34.2168 77.3047C34.418 77.3047 34.6231 77.252 34.8027 77.1484L48.8262 69.0527V96.0137L19.6113 79.1426V69.0566H19.6133ZM80.3867 79.1426L51.1758 96.0137V69.0547L65.1934 77.1504C65.375 77.2559 65.5781 77.3086 65.7812 77.3086C65.9844 77.3086 66.1855 77.2559 66.3672 77.1523L80.3848 69.0606V79.1465L80.3867 79.1426ZM65.7812 74.7773L52.3496 67.0195L81.5606 50.1543L94.9981 57.9121L65.7832 74.7773H65.7812ZM50.002 35.4961C57.6426 35.4961 63.8594 29.2773 63.8594 21.6328C63.8594 13.9883 57.6426 7.77539 50.002 7.77539C42.3613 7.77539 36.1387 13.9922 36.1387 21.6328C36.1387 29.2734 42.3574 35.4961 50.002 35.4961ZM50.002 10.123C56.3496 10.123 61.5117 15.2871 61.5117 21.6328C61.5117 27.9785 56.3477 33.1484 50.002 33.1484C43.6563 33.1484 38.4863 27.9824 38.4863 21.6328C38.4863 15.2832 43.6524 10.123 50.002 10.123ZM44.2676 27.7383C44.1641 28.1953 44.3438 28.6699 44.7227 28.9453C44.9277 29.0938 45.1699 29.1699 45.4141 29.1699C45.6191 29.1699 45.8262 29.1152 46.0117 29.0059L50.0039 26.6465L53.9902 29.0059C54.1873 29.1226 54.4141 29.179 54.6429 29.1683C54.8716 29.1575 55.0922 29.08 55.2773 28.9453C55.4625 28.8103 55.6043 28.6242 55.6851 28.4098C55.766 28.1953 55.7824 27.9619 55.7324 27.7383L54.7168 23.2188L58.1914 20.1562C58.543 19.8477 58.6758 19.3574 58.5313 18.9121C58.3867 18.4668 57.9902 18.1504 57.5254 18.1055L52.9141 17.6719L51.0801 13.4219C50.9894 13.2116 50.8392 13.0325 50.6479 12.9066C50.4567 12.7806 50.2329 12.7133 50.0039 12.7129C49.5352 12.7129 49.1133 12.9902 48.9258 13.4199L47.0859 17.6719L42.4746 18.1055C42.0078 18.1484 41.6133 18.4668 41.4688 18.9121C41.3242 19.3574 41.457 19.8457 41.8086 20.1562L45.2832 23.2188L44.2676 27.7383ZM47.9981 19.9453C48.2074 19.9255 48.4076 19.8498 48.5777 19.7261C48.7478 19.6024 48.8815 19.4353 48.9648 19.2422L50.002 16.8477L51.0352 19.2422C51.1184 19.4358 51.2523 19.6033 51.4228 19.727C51.5933 19.8508 51.7941 19.9262 52.0039 19.9453L54.6035 20.1895L52.6445 21.916C52.4865 22.0553 52.3689 22.2345 52.304 22.4348C52.239 22.6351 52.2292 22.8492 52.2754 23.0547L52.8477 25.6016L50.6016 24.2734C50.4207 24.1661 50.2142 24.1094 50.0039 24.1094C49.7936 24.1094 49.5871 24.1661 49.4063 24.2734L47.1543 25.6035L47.7266 23.0547C47.8203 22.6367 47.6797 22.1992 47.3574 21.916L45.3984 20.1895L47.9981 19.9453Z"/>
</mask>
<path d="M97.9316 56.8965L83.9082 48.8008L97.9316 40.7051C98.2949 40.4961 98.5176 40.1074 98.5176 39.6875C98.5176 39.2676 98.293 38.8809 97.9316 38.6719L70.7188 22.9648C71.0742 21.209 70.7207 19.3379 69.6524 17.8125C69.0703 16.9863 68.8399 16.1309 68.9316 15.1191C69.1719 12.3398 67.6367 9.68164 65.1074 8.5C64.1895 8.07422 63.5625 7.44727 63.1348 6.52734C61.9551 4 59.2949 2.46289 56.5117 2.70508C55.5039 2.79688 54.6504 2.56836 53.8203 1.98242C51.5352 0.380859 48.4629 0.380859 46.1777 1.98242H46.1758C45.3496 2.56641 44.4941 2.79492 43.4824 2.70313C40.7051 2.46289 38.0449 3.99805 36.8633 6.52734C36.4375 7.44531 35.8106 8.07227 34.8906 8.5C32.3633 9.67969 30.8262 12.3398 31.0684 15.123C31.1602 16.1309 30.9316 16.9844 30.3457 17.8145C29.2793 19.3359 28.9258 21.207 29.2813 22.9629L2.06836 38.6699C1.8901 38.7728 1.7421 38.9209 1.63924 39.0992C1.53638 39.2775 1.48229 39.4797 1.48242 39.6856C1.48242 40.1055 1.70703 40.4922 2.06836 40.7031L16.0918 48.7988L2.06836 56.8965C1.8901 56.9994 1.7421 57.1475 1.63924 57.3257C1.53638 57.504 1.48229 57.7063 1.48242 57.9121C1.48249 58.1179 1.53666 58.3201 1.6395 58.4983C1.74234 58.6766 1.89023 58.8247 2.06836 58.9277L17.2656 67.7012V79.8184C17.2657 80.0242 17.3199 80.2263 17.4227 80.4046C17.5255 80.5828 17.6734 80.7309 17.8516 80.834L49.4141 99.0606C49.5923 99.1641 49.7948 99.2187 50.001 99.2187C50.2071 99.2187 50.4096 99.1641 50.5879 99.0606L82.1445 80.834C82.3228 80.7311 82.4708 80.583 82.5737 80.4047C82.6765 80.2264 82.7306 80.0242 82.7305 79.8184V67.7012L97.9277 58.9277C98.291 58.7188 98.5137 58.3301 98.5137 57.9121C98.5137 57.4941 98.2891 57.1055 97.9277 56.8965H97.9316ZM94.9981 39.6875L81.5606 47.4453L65.5293 38.1895L64.6758 35.0039C64.8145 34.9219 64.9551 34.8418 65.1094 34.7715C67.6367 33.5918 69.1738 30.9316 68.9316 28.1484C68.8399 27.1406 69.0684 26.2871 69.6543 25.457C69.7207 25.3633 69.7793 25.2637 69.8418 25.168L94.9981 39.6875ZM50.0039 65.666L20.7871 48.8008L33.6113 41.3965L31.1738 50.4961C31.115 50.7165 31.1215 50.9492 31.1927 51.166C31.264 51.3827 31.3967 51.574 31.5749 51.7165C31.753 51.859 31.9688 51.9465 32.1958 51.9684C32.4229 51.9903 32.6514 51.9457 32.8535 51.8399L39.3145 48.4512L43.2207 54.6191C43.3428 54.812 43.5185 54.9651 43.7264 55.0594C43.9342 55.1538 44.1651 55.1854 44.3906 55.1504C44.6159 55.116 44.8264 55.0169 44.9963 54.865C45.1663 54.7131 45.2883 54.515 45.3477 54.2949L48.5547 42.3359C49.0313 42.4414 49.5156 42.4961 50.002 42.4961C50.4902 42.4961 50.9766 42.4414 51.4551 42.3359L54.6563 54.2969C54.723 54.5468 54.8704 54.7677 55.0756 54.9253C55.2808 55.0828 55.5323 55.1681 55.791 55.168C56.1895 55.168 56.5645 54.9649 56.7832 54.6231L60.6895 48.4551L67.1504 51.8438C67.3525 51.9499 67.5811 51.9948 67.8083 51.973C68.0355 51.9512 68.2514 51.8636 68.4296 51.7211C68.6078 51.5785 68.7406 51.3871 68.8117 51.1702C68.8829 50.9533 68.8892 50.7204 68.8301 50.5L66.3926 41.4004L79.2168 48.8047L50.0059 65.6699L50.0039 65.666ZM43.4883 40.5684C44.4961 40.4766 45.3496 40.7051 46.1797 41.291C46.2422 41.334 46.3066 41.3711 46.3691 41.4121L43.7715 51.0977L40.7188 46.2773C40.5608 46.0285 40.3152 45.848 40.0305 45.7717C39.7458 45.6954 39.4429 45.7288 39.1816 45.8652L34.1348 48.5137L37.1445 37.2754C38.4316 39.4824 40.9043 40.7891 43.4863 40.5664L43.4883 40.5684ZM62.8555 37.2773L65.8652 48.5156L60.8184 45.8672C60.5572 45.7304 60.2541 45.6968 59.9693 45.7731C59.6846 45.8495 59.4389 46.0302 59.2813 46.2793L56.2305 51.0977L53.6367 41.4102C53.6992 41.3691 53.7637 41.332 53.8242 41.2891C54.6504 40.7051 55.5059 40.4766 56.5176 40.5684C59.0957 40.791 61.5664 39.4844 62.8555 37.2773ZM32.2656 19.1641C33.1621 17.8926 33.5469 16.4609 33.4063 14.9141C33.25 13.1133 34.2461 11.3906 35.8809 10.627C37.291 9.97266 38.3379 8.92578 38.9902 7.51758C39.7559 5.87891 41.4785 4.88477 43.2734 5.03906C44.8223 5.17969 46.2539 4.79688 47.5254 3.90039C49.0059 2.86328 50.9922 2.86328 52.4688 3.90039C53.7402 4.79688 55.1719 5.18164 56.7188 5.04102C58.5195 4.88477 60.2422 5.88086 61.0059 7.51563C61.6602 8.92578 62.707 9.97266 64.1152 10.627C65.7539 11.3926 66.7481 13.1152 66.5938 14.9102C66.4531 16.4609 66.8359 17.8926 67.7324 19.1621C68.7695 20.6426 68.7695 22.6309 67.7344 24.1074C66.8379 25.3789 66.4531 26.8105 66.5938 28.3574C66.75 30.1582 65.7539 31.8809 64.1191 32.6445C63.585 32.8908 63.0869 33.2089 62.6387 33.5898C62.5703 33.6387 62.5098 33.6953 62.4551 33.7578C61.8574 34.3105 61.3711 34.9746 61.0098 35.7539C60.2441 37.3926 58.5215 38.3867 56.7266 38.2324C55.1758 38.0898 53.7441 38.4746 52.4746 39.3711C50.9941 40.4082 49.0059 40.4082 47.5293 39.3711C46.4277 38.5938 45.207 38.2031 43.8965 38.2031C43.6934 38.2031 43.4883 38.2129 43.2793 38.2324C41.4785 38.3906 39.7559 37.3926 38.9922 35.7578C38.6289 34.9785 38.1426 34.3125 37.5469 33.7598C37.4922 33.6973 37.4297 33.6426 37.3633 33.5918C36.9155 33.2113 36.4181 32.8933 35.8848 32.6465C34.2461 31.8809 33.252 30.1582 33.4063 28.3633C33.5469 26.8125 33.1641 25.3809 32.2676 24.1113C31.2305 22.6309 31.2305 20.6426 32.2676 19.166L32.2656 19.1641ZM30.1582 25.166C30.2188 25.2637 30.2793 25.3633 30.3457 25.459C30.9297 26.2852 31.1582 27.1406 31.0664 28.1523C30.8262 30.9316 32.3613 33.5898 34.8906 34.7715C35.043 34.8418 35.1856 34.9219 35.3223 35.0039L34.4688 38.1895L18.4375 47.4453L5.00391 39.6875L30.1602 25.168L30.1582 25.166ZM18.4395 50.1543L47.6543 67.0195L34.2168 74.7773L5.00195 57.9141L18.4395 50.1562V50.1543ZM19.6133 69.0566L33.6309 77.1484C33.8125 77.2539 34.0156 77.3047 34.2168 77.3047C34.418 77.3047 34.6231 77.252 34.8027 77.1484L48.8262 69.0527V96.0137L19.6113 79.1426V69.0566H19.6133ZM80.3867 79.1426L51.1758 96.0137V69.0547L65.1934 77.1504C65.375 77.2559 65.5781 77.3086 65.7812 77.3086C65.9844 77.3086 66.1855 77.2559 66.3672 77.1523L80.3848 69.0606V79.1465L80.3867 79.1426ZM65.7812 74.7773L52.3496 67.0195L81.5606 50.1543L94.9981 57.9121L65.7832 74.7773H65.7812ZM50.002 35.4961C57.6426 35.4961 63.8594 29.2773 63.8594 21.6328C63.8594 13.9883 57.6426 7.77539 50.002 7.77539C42.3613 7.77539 36.1387 13.9922 36.1387 21.6328C36.1387 29.2734 42.3574 35.4961 50.002 35.4961ZM50.002 10.123C56.3496 10.123 61.5117 15.2871 61.5117 21.6328C61.5117 27.9785 56.3477 33.1484 50.002 33.1484C43.6563 33.1484 38.4863 27.9824 38.4863 21.6328C38.4863 15.2832 43.6524 10.123 50.002 10.123ZM44.2676 27.7383C44.1641 28.1953 44.3438 28.6699 44.7227 28.9453C44.9277 29.0938 45.1699 29.1699 45.4141 29.1699C45.6191 29.1699 45.8262 29.1152 46.0117 29.0059L50.0039 26.6465L53.9902 29.0059C54.1873 29.1226 54.4141 29.179 54.6429 29.1683C54.8716 29.1575 55.0922 29.08 55.2773 28.9453C55.4625 28.8103 55.6043 28.6242 55.6851 28.4098C55.766 28.1953 55.7824 27.9619 55.7324 27.7383L54.7168 23.2188L58.1914 20.1562C58.543 19.8477 58.6758 19.3574 58.5313 18.9121C58.3867 18.4668 57.9902 18.1504 57.5254 18.1055L52.9141 17.6719L51.0801 13.4219C50.9894 13.2116 50.8392 13.0325 50.6479 12.9066C50.4567 12.7806 50.2329 12.7133 50.0039 12.7129C49.5352 12.7129 49.1133 12.9902 48.9258 13.4199L47.0859 17.6719L42.4746 18.1055C42.0078 18.1484 41.6133 18.4668 41.4688 18.9121C41.3242 19.3574 41.457 19.8457 41.8086 20.1562L45.2832 23.2188L44.2676 27.7383ZM47.9981 19.9453C48.2074 19.9255 48.4076 19.8498 48.5777 19.7261C48.7478 19.6024 48.8815 19.4353 48.9648 19.2422L50.002 16.8477L51.0352 19.2422C51.1184 19.4358 51.2523 19.6033 51.4228 19.727C51.5933 19.8508 51.7941 19.9262 52.0039 19.9453L54.6035 20.1895L52.6445 21.916C52.4865 22.0553 52.3689 22.2345 52.304 22.4348C52.239 22.6351 52.2292 22.8492 52.2754 23.0547L52.8477 25.6016L50.6016 24.2734C50.4207 24.1661 50.2142 24.1094 50.0039 24.1094C49.7936 24.1094 49.5871 24.1661 49.4063 24.2734L47.1543 25.6035L47.7266 23.0547C47.8203 22.6367 47.6797 22.1992 47.3574 21.916L45.3984 20.1895L47.9981 19.9453Z" fill="#9D1C45"/>
<path d="M97.9316 56.8965L83.9082 48.8008L97.9316 40.7051C98.2949 40.4961 98.5176 40.1074 98.5176 39.6875C98.5176 39.2676 98.293 38.8809 97.9316 38.6719L70.7188 22.9648C71.0742 21.209 70.7207 19.3379 69.6524 17.8125C69.0703 16.9863 68.8399 16.1309 68.9316 15.1191C69.1719 12.3398 67.6367 9.68164 65.1074 8.5C64.1895 8.07422 63.5625 7.44727 63.1348 6.52734C61.9551 4 59.2949 2.46289 56.5117 2.70508C55.5039 2.79688 54.6504 2.56836 53.8203 1.98242C51.5352 0.380859 48.4629 0.380859 46.1777 1.98242H46.1758C45.3496 2.56641 44.4941 2.79492 43.4824 2.70313C40.7051 2.46289 38.0449 3.99805 36.8633 6.52734C36.4375 7.44531 35.8106 8.07227 34.8906 8.5C32.3633 9.67969 30.8262 12.3398 31.0684 15.123C31.1602 16.1309 30.9316 16.9844 30.3457 17.8145C29.2793 19.3359 28.9258 21.207 29.2813 22.9629L2.06836 38.6699C1.8901 38.7728 1.7421 38.9209 1.63924 39.0992C1.53638 39.2775 1.48229 39.4797 1.48242 39.6856C1.48242 40.1055 1.70703 40.4922 2.06836 40.7031L16.0918 48.7988L2.06836 56.8965C1.8901 56.9994 1.7421 57.1475 1.63924 57.3257C1.53638 57.504 1.48229 57.7063 1.48242 57.9121C1.48249 58.1179 1.53666 58.3201 1.6395 58.4983C1.74234 58.6766 1.89023 58.8247 2.06836 58.9277L17.2656 67.7012V79.8184C17.2657 80.0242 17.3199 80.2263 17.4227 80.4046C17.5255 80.5828 17.6734 80.7309 17.8516 80.834L49.4141 99.0606C49.5923 99.1641 49.7948 99.2187 50.001 99.2187C50.2071 99.2187 50.4096 99.1641 50.5879 99.0606L82.1445 80.834C82.3228 80.7311 82.4708 80.583 82.5737 80.4047C82.6765 80.2264 82.7306 80.0242 82.7305 79.8184V67.7012L97.9277 58.9277C98.291 58.7188 98.5137 58.3301 98.5137 57.9121C98.5137 57.4941 98.2891 57.1055 97.9277 56.8965H97.9316ZM94.9981 39.6875L81.5606 47.4453L65.5293 38.1895L64.6758 35.0039C64.8145 34.9219 64.9551 34.8418 65.1094 34.7715C67.6367 33.5918 69.1738 30.9316 68.9316 28.1484C68.8399 27.1406 69.0684 26.2871 69.6543 25.457C69.7207 25.3633 69.7793 25.2637 69.8418 25.168L94.9981 39.6875ZM50.0039 65.666L20.7871 48.8008L33.6113 41.3965L31.1738 50.4961C31.115 50.7165 31.1215 50.9492 31.1927 51.166C31.264 51.3827 31.3967 51.574 31.5749 51.7165C31.753 51.859 31.9688 51.9465 32.1958 51.9684C32.4229 51.9903 32.6514 51.9457 32.8535 51.8399L39.3145 48.4512L43.2207 54.6191C43.3428 54.812 43.5185 54.9651 43.7264 55.0594C43.9342 55.1538 44.1651 55.1854 44.3906 55.1504C44.6159 55.116 44.8264 55.0169 44.9963 54.865C45.1663 54.7131 45.2883 54.515 45.3477 54.2949L48.5547 42.3359C49.0313 42.4414 49.5156 42.4961 50.002 42.4961C50.4902 42.4961 50.9766 42.4414 51.4551 42.3359L54.6563 54.2969C54.723 54.5468 54.8704 54.7677 55.0756 54.9253C55.2808 55.0828 55.5323 55.1681 55.791 55.168C56.1895 55.168 56.5645 54.9649 56.7832 54.6231L60.6895 48.4551L67.1504 51.8438C67.3525 51.9499 67.5811 51.9948 67.8083 51.973C68.0355 51.9512 68.2514 51.8636 68.4296 51.7211C68.6078 51.5785 68.7406 51.3871 68.8117 51.1702C68.8829 50.9533 68.8892 50.7204 68.8301 50.5L66.3926 41.4004L79.2168 48.8047L50.0059 65.6699L50.0039 65.666ZM43.4883 40.5684C44.4961 40.4766 45.3496 40.7051 46.1797 41.291C46.2422 41.334 46.3066 41.3711 46.3691 41.4121L43.7715 51.0977L40.7188 46.2773C40.5608 46.0285 40.3152 45.848 40.0305 45.7717C39.7458 45.6954 39.4429 45.7288 39.1816 45.8652L34.1348 48.5137L37.1445 37.2754C38.4316 39.4824 40.9043 40.7891 43.4863 40.5664L43.4883 40.5684ZM62.8555 37.2773L65.8652 48.5156L60.8184 45.8672C60.5572 45.7304 60.2541 45.6968 59.9693 45.7731C59.6846 45.8495 59.4389 46.0302 59.2813 46.2793L56.2305 51.0977L53.6367 41.4102C53.6992 41.3691 53.7637 41.332 53.8242 41.2891C54.6504 40.7051 55.5059 40.4766 56.5176 40.5684C59.0957 40.791 61.5664 39.4844 62.8555 37.2773ZM32.2656 19.1641C33.1621 17.8926 33.5469 16.4609 33.4063 14.9141C33.25 13.1133 34.2461 11.3906 35.8809 10.627C37.291 9.97266 38.3379 8.92578 38.9902 7.51758C39.7559 5.87891 41.4785 4.88477 43.2734 5.03906C44.8223 5.17969 46.2539 4.79688 47.5254 3.90039C49.0059 2.86328 50.9922 2.86328 52.4688 3.90039C53.7402 4.79688 55.1719 5.18164 56.7188 5.04102C58.5195 4.88477 60.2422 5.88086 61.0059 7.51563C61.6602 8.92578 62.707 9.97266 64.1152 10.627C65.7539 11.3926 66.7481 13.1152 66.5938 14.9102C66.4531 16.4609 66.8359 17.8926 67.7324 19.1621C68.7695 20.6426 68.7695 22.6309 67.7344 24.1074C66.8379 25.3789 66.4531 26.8105 66.5938 28.3574C66.75 30.1582 65.7539 31.8809 64.1191 32.6445C63.585 32.8908 63.0869 33.2089 62.6387 33.5898C62.5703 33.6387 62.5098 33.6953 62.4551 33.7578C61.8574 34.3105 61.3711 34.9746 61.0098 35.7539C60.2441 37.3926 58.5215 38.3867 56.7266 38.2324C55.1758 38.0898 53.7441 38.4746 52.4746 39.3711C50.9941 40.4082 49.0059 40.4082 47.5293 39.3711C46.4277 38.5938 45.207 38.2031 43.8965 38.2031C43.6934 38.2031 43.4883 38.2129 43.2793 38.2324C41.4785 38.3906 39.7559 37.3926 38.9922 35.7578C38.6289 34.9785 38.1426 34.3125 37.5469 33.7598C37.4922 33.6973 37.4297 33.6426 37.3633 33.5918C36.9155 33.2113 36.4181 32.8933 35.8848 32.6465C34.2461 31.8809 33.252 30.1582 33.4063 28.3633C33.5469 26.8125 33.1641 25.3809 32.2676 24.1113C31.2305 22.6309 31.2305 20.6426 32.2676 19.166L32.2656 19.1641ZM30.1582 25.166C30.2188 25.2637 30.2793 25.3633 30.3457 25.459C30.9297 26.2852 31.1582 27.1406 31.0664 28.1523C30.8262 30.9316 32.3613 33.5898 34.8906 34.7715C35.043 34.8418 35.1856 34.9219 35.3223 35.0039L34.4688 38.1895L18.4375 47.4453L5.00391 39.6875L30.1602 25.168L30.1582 25.166ZM18.4395 50.1543L47.6543 67.0195L34.2168 74.7773L5.00195 57.9141L18.4395 50.1562V50.1543ZM19.6133 69.0566L33.6309 77.1484C33.8125 77.2539 34.0156 77.3047 34.2168 77.3047C34.418 77.3047 34.6231 77.252 34.8027 77.1484L48.8262 69.0527V96.0137L19.6113 79.1426V69.0566H19.6133ZM80.3867 79.1426L51.1758 96.0137V69.0547L65.1934 77.1504C65.375 77.2559 65.5781 77.3086 65.7812 77.3086C65.9844 77.3086 66.1855 77.2559 66.3672 77.1523L80.3848 69.0606V79.1465L80.3867 79.1426ZM65.7812 74.7773L52.3496 67.0195L81.5606 50.1543L94.9981 57.9121L65.7832 74.7773H65.7812ZM50.002 35.4961C57.6426 35.4961 63.8594 29.2773 63.8594 21.6328C63.8594 13.9883 57.6426 7.77539 50.002 7.77539C42.3613 7.77539 36.1387 13.9922 36.1387 21.6328C36.1387 29.2734 42.3574 35.4961 50.002 35.4961ZM50.002 10.123C56.3496 10.123 61.5117 15.2871 61.5117 21.6328C61.5117 27.9785 56.3477 33.1484 50.002 33.1484C43.6563 33.1484 38.4863 27.9824 38.4863 21.6328C38.4863 15.2832 43.6524 10.123 50.002 10.123ZM44.2676 27.7383C44.1641 28.1953 44.3438 28.6699 44.7227 28.9453C44.9277 29.0938 45.1699 29.1699 45.4141 29.1699C45.6191 29.1699 45.8262 29.1152 46.0117 29.0059L50.0039 26.6465L53.9902 29.0059C54.1873 29.1226 54.4141 29.179 54.6429 29.1683C54.8716 29.1575 55.0922 29.08 55.2773 28.9453C55.4625 28.8103 55.6043 28.6242 55.6851 28.4098C55.766 28.1953 55.7824 27.9619 55.7324 27.7383L54.7168 23.2188L58.1914 20.1562C58.543 19.8477 58.6758 19.3574 58.5313 18.9121C58.3867 18.4668 57.9902 18.1504 57.5254 18.1055L52.9141 17.6719L51.0801 13.4219C50.9894 13.2116 50.8392 13.0325 50.6479 12.9066C50.4567 12.7806 50.2329 12.7133 50.0039 12.7129C49.5352 12.7129 49.1133 12.9902 48.9258 13.4199L47.0859 17.6719L42.4746 18.1055C42.0078 18.1484 41.6133 18.4668 41.4688 18.9121C41.3242 19.3574 41.457 19.8457 41.8086 20.1562L45.2832 23.2188L44.2676 27.7383ZM47.9981 19.9453C48.2074 19.9255 48.4076 19.8498 48.5777 19.7261C48.7478 19.6024 48.8815 19.4353 48.9648 19.2422L50.002 16.8477L51.0352 19.2422C51.1184 19.4358 51.2523 19.6033 51.4228 19.727C51.5933 19.8508 51.7941 19.9262 52.0039 19.9453L54.6035 20.1895L52.6445 21.916C52.4865 22.0553 52.3689 22.2345 52.304 22.4348C52.239 22.6351 52.2292 22.8492 52.2754 23.0547L52.8477 25.6016L50.6016 24.2734C50.4207 24.1661 50.2142 24.1094 50.0039 24.1094C49.7936 24.1094 49.5871 24.1661 49.4063 24.2734L47.1543 25.6035L47.7266 23.0547C47.8203 22.6367 47.6797 22.1992 47.3574 21.916L45.3984 20.1895L47.9981 19.9453Z" stroke="#9D1C45" stroke-width="0.5" mask="url(#path-1-outside-1_319_65)"/>
</svg>
