<svg width="16" height="17" viewBox="0 0 16 17" fill="none" xmlns="http://www.w3.org/2000/svg">
<g clip-path="url(#clip0_319_13)">
<path d="M13.7859 11.636C12.8193 10.8093 11.8384 10.3085 10.8837 11.134L10.3136 11.6329C9.89653 11.995 9.12104 13.6871 6.12272 10.238C3.12502 6.79323 4.90891 6.25688 5.32662 5.89785L5.89981 5.39834C6.84951 4.57102 6.49111 3.52954 5.80615 2.45746L5.39281 1.8081C4.70473 0.738516 3.95546 0.0360774 3.00327 0.862146L2.48877 1.31171C2.06793 1.61828 0.89158 2.61481 0.606233 4.50796C0.262819 6.77949 1.34614 9.3807 3.82809 12.2348C6.30692 15.0901 8.73392 16.5244 11.0329 16.4994C12.9436 16.4788 14.0974 15.4535 14.4583 15.0808L14.9747 14.6306C15.9244 13.8051 15.3343 12.9647 14.3672 12.1361L13.7859 11.636Z" fill="#9E1C46"/>
</g>
<defs>
<clipPath id="clip0_319_13">
<rect width="16" height="16" fill="white" transform="translate(0 0.5)"/>
</clipPath>
</defs>
</svg>
