<svg width="12" height="12" viewBox="0 0 12 12" fill="none" xmlns="http://www.w3.org/2000/svg">
<path d="M10.3394 8.35201C9.61451 7.73199 8.87882 7.35642 8.1628 7.9755L7.73525 8.34967C7.42243 8.62128 6.84081 9.89035 4.59207 7.3035C2.3438 4.71993 3.68171 4.31767 3.995 4.0484L4.42489 3.67376C5.13716 3.05328 4.86836 2.27216 4.35465 1.4681L4.04464 0.98108C3.52858 0.178895 2.96663 -0.347934 2.25248 0.271617L1.86661 0.608788C1.55098 0.838719 0.668715 1.58611 0.454706 3.00598C0.197145 4.70963 1.00963 6.66053 2.8711 8.8011C4.73022 10.9426 6.55047 12.0183 8.27472 11.9995C9.7077 11.9841 10.5731 11.2151 10.8438 10.9356L11.2311 10.5979C11.9433 9.97886 11.5008 9.34853 10.7754 8.72711L10.3394 8.35201Z" fill="#1C9D74"/>
</svg>
