<svg width="33" height="32" viewBox="0 0 33 32" fill="none" xmlns="http://www.w3.org/2000/svg">
<g clip-path="url(#clip0_319_262)">
<path fill-rule="evenodd" clip-rule="evenodd" d="M23.0813 9.70512L7.65463 15.6531C6.5973 16.0665 6.61596 16.6518 7.4733 16.9238L11.4226 18.1558L20.584 12.3878C21.0093 12.1051 21.404 12.2651 21.0813 12.5491L13.668 19.2465L13.384 23.3171C13.7973 23.3171 13.9773 23.1371 14.1906 22.9238L16.12 21.0651L20.12 24.0131C20.8493 24.4265 21.3706 24.2131 21.5653 23.3358L24.192 10.9611L24.1906 10.9625C24.4226 9.87979 23.7973 9.44645 23.0813 9.70512Z" fill="white"/>
<path d="M16.3333 32C25.172 32 32.3333 24.8387 32.3333 16C32.3333 7.16133 25.172 0 16.3333 0C7.49465 0 0.333313 7.16133 0.333313 16C0.333313 24.8387 7.49465 32 16.3333 32ZM7.65465 15.6533L23.0813 9.70533C23.7973 9.44667 24.4226 9.88 24.1906 10.9627L24.192 10.9613L21.5653 23.336C21.3706 24.2133 20.8493 24.4267 20.12 24.0133L16.12 21.0653L14.1906 22.924C13.9773 23.1373 13.7973 23.3173 13.384 23.3173L13.668 19.2467L21.0813 12.5493C21.404 12.2653 21.0093 12.1053 20.584 12.388L11.4226 18.156L7.47331 16.924C6.61598 16.652 6.59731 16.0667 7.65465 15.6533Z" fill="#9D1C45"/>
</g>
<defs>
<clipPath id="clip0_319_262">
<rect width="32" height="32" fill="white" transform="translate(0.333313)"/>
</clipPath>
</defs>
</svg>
