<svg width="12" height="12" viewBox="0 0 12 12" fill="none" xmlns="http://www.w3.org/2000/svg">
<path fill-rule="evenodd" clip-rule="evenodd" d="M2.99993 4C2.99993 3.20435 3.316 2.44129 3.87861 1.87868C4.44122 1.31607 5.20428 1 5.99993 1C6.79558 1 7.55864 1.31607 8.12125 1.87868C8.68386 2.44129 8.99993 3.20435 8.99993 4C8.99993 4.79565 8.68386 5.55871 8.12125 6.12132C7.55864 6.68393 6.79558 7 5.99993 7C5.20428 7 4.44122 6.68393 3.87861 6.12132C3.316 5.55871 2.99993 4.79565 2.99993 4ZM2.71493 8.451C3.52843 8.1115 4.61193 8 5.99993 8C7.38543 8 8.46743 8.11 9.27943 8.449C10.1504 8.8125 10.6854 9.4305 10.9704 10.329C10.995 10.4062 11.0009 10.4881 10.9879 10.5681C10.9748 10.648 10.9431 10.7237 10.8952 10.7891C10.8474 10.8545 10.7848 10.9077 10.7126 10.9443C10.6403 10.981 10.5604 11 10.4794 11H1.51743C1.17243 11 0.923427 10.665 1.02843 10.3325C1.31243 9.434 1.84543 8.816 2.71543 8.451H2.71493Z" fill="#9D1C45"/>
</svg>
