<svg width="12" height="12" viewBox="0 0 12 12" fill="none" xmlns="http://www.w3.org/2000/svg">
<path fill-rule="evenodd" clip-rule="evenodd" d="M3 4C3 3.20435 3.31607 2.44129 3.87868 1.87868C4.44129 1.31607 5.20435 1 6 1C6.79565 1 7.55872 1.31607 8.12132 1.87868C8.68393 2.44129 9 3.20435 9 4C9 4.79565 8.68393 5.55871 8.12132 6.12132C7.55872 6.68393 6.79565 7 6 7C5.20435 7 4.44129 6.68393 3.87868 6.12132C3.31607 5.55871 3 4.79565 3 4ZM2.715 8.451C3.5285 8.1115 4.612 8 6 8C7.3855 8 8.4675 8.11 9.2795 8.449C10.1505 8.8125 10.6855 9.4305 10.9705 10.329C10.995 10.4062 11.001 10.4881 10.988 10.5681C10.9749 10.648 10.9432 10.7237 10.8953 10.7891C10.8475 10.8545 10.7849 10.9077 10.7126 10.9443C10.6404 10.981 10.5605 11 10.4795 11H1.5175C1.1725 11 0.923503 10.665 1.0285 10.3325C1.3125 9.434 1.8455 8.816 2.7155 8.451H2.715Z" fill="#1C9D74"/>
</svg>
