<svg width="33" height="32" viewBox="0 0 33 32" fill="none" xmlns="http://www.w3.org/2000/svg">
<path fill-rule="evenodd" clip-rule="evenodd" d="M0.333313 16C0.333313 7.16481 7.49813 0 16.3333 0C25.1685 0 32.3333 7.16481 32.3333 16C32.3333 24.8352 25.1685 32 16.3333 32C7.49813 32 0.333313 24.8352 0.333313 16ZM16.6685 25.3156H16.6724L16.6724 25.3157C21.95 25.3157 26.2464 21.021 26.2486 15.7424C26.2496 13.1846 25.2545 10.7793 23.4464 8.96975C21.6385 7.16038 19.2339 6.16331 16.6724 6.16237C11.3941 6.16237 7.09819 10.4566 7.096 15.7349C7.09525 17.4221 7.53619 19.0691 8.37431 20.5208L7.01569 25.4817L12.0921 24.1504C13.4908 24.9131 15.0658 25.315 16.6685 25.3156ZM8.71282 15.7357C8.71482 11.3485 12.2853 7.77945 16.6758 7.77945C18.8014 7.78013 20.8 8.60901 22.3027 10.1129C23.8054 11.6168 24.6325 13.6158 24.6318 15.7421C24.6298 20.1295 21.0593 23.6989 16.6723 23.6989H16.6691C15.2409 23.6984 13.84 23.3148 12.6181 22.5898L12.3274 22.4174L9.31488 23.2074L10.1191 20.2711L9.92988 19.9701C9.13326 18.7033 8.71238 17.2391 8.71282 15.7357ZM19.7424 20.2941C20.2021 20.2253 21.1579 19.7152 21.3574 19.1566C21.5568 18.5978 21.5568 18.119 21.4968 18.0192C21.4487 17.9389 21.3362 17.8845 21.1695 17.8039C21.1289 17.7843 21.0851 17.7631 21.0383 17.7396C20.799 17.62 19.6228 17.0411 19.4033 16.9616C19.184 16.8817 19.0244 16.8417 18.8649 17.0812C18.7055 17.3207 18.2468 17.8595 18.1074 18.0192C17.9677 18.1786 17.8281 18.1986 17.5891 18.079C17.5499 18.0594 17.4964 18.0362 17.4303 18.0075C17.0933 17.8613 16.4291 17.5732 15.6648 16.8918C14.9536 16.2574 14.4731 15.474 14.3337 15.2348C14.2086 15.0202 14.3067 14.9038 14.4048 14.7872C14.4162 14.7737 14.4276 14.7602 14.4387 14.7465C14.6918 14.4325 14.957 14.088 15.0368 13.9284C15.1164 13.7687 15.0766 13.629 15.0168 13.5092C14.9767 13.4289 14.7482 12.873 14.5419 12.371C14.4406 12.1245 14.3447 11.891 14.279 11.7333C14.1076 11.3213 13.9338 11.3224 13.7943 11.3233C13.7758 11.3234 13.7579 11.3235 13.7407 11.3226C13.6013 11.3158 13.4416 11.3143 13.2821 11.3143C13.1228 11.3143 12.8634 11.3741 12.644 11.6136C12.63 11.6289 12.6144 11.6456 12.5974 11.6637C12.3483 11.9293 11.8066 12.5069 11.8066 13.609C11.8066 14.7801 12.6547 15.9115 12.7816 16.0809L12.7836 16.0836C12.7915 16.094 12.8055 16.1141 12.8255 16.1428C13.1118 16.5534 14.6278 18.7271 16.8711 19.6954C17.4421 19.9418 17.8876 20.089 18.2353 20.1993C18.8086 20.3813 19.33 20.3556 19.7424 20.2941Z" fill="#9D1C45"/>
</svg>
